<svg width="20" height="20" viewBox="0 0 20 20" fill="none" xmlns="http://www.w3.org/2000/svg">
<path d="M18.333 4.99999V7.01666C18.333 8.33332 17.4997 9.16666 16.183 9.16666H13.333V3.34166C13.333 2.41666 14.0913 1.66666 15.0163 1.66666C15.9247 1.67499 16.758 2.04165 17.358 2.64166C17.958 3.24999 18.333 4.08332 18.333 4.99999Z" stroke="#D1D7EB" stroke-width="1.5" stroke-miterlimit="10" stroke-linecap="round" stroke-linejoin="round"/>
<path d="M1.66699 5.91784V17.8212C1.66699 18.5269 2.45032 18.9265 3.00032 18.5013L4.42533 17.413C4.75866 17.158 5.22533 17.192 5.52533 17.4981L6.90866 18.918C7.23366 19.2496 7.76699 19.2496 8.09199 18.918L9.49199 17.4896C9.78366 17.192 10.2503 17.158 10.5753 17.413L12.0003 18.5013C12.5503 18.918 13.3337 18.5184 13.3337 17.8212V3.36713C13.3337 2.43187 14.0837 1.66666 15.0003 1.66666H5.83366H5.00033C2.50033 1.66666 1.66699 3.18858 1.66699 5.0676V5.91784Z" stroke="#D1D7EB" stroke-width="1.5" stroke-miterlimit="10" stroke-linecap="round" stroke-linejoin="round"/>
<path d="M5 5.83334H10.8333" stroke="#D1D7EB" stroke-width="1.5" stroke-linecap="round" stroke-linejoin="round"/>
<path d="M5 8.33334H9.16667" stroke="#D1D7EB" stroke-width="1.5" stroke-linecap="round" stroke-linejoin="round"/>
<path d="M5 10.8333H9.16667" stroke="#D1D7EB" stroke-width="1.5" stroke-linecap="round" stroke-linejoin="round"/>
</svg>
