<svg width="24" height="24" viewBox="0 0 24 24" fill="none" xmlns="http://www.w3.org/2000/svg">
<path d="M12 20H17C20.7 20 21.9923 18.9501 21.9923 15.2501C20.7123 15.2501 19.6823 14.2101 19.6823 12.9401C19.6823 11.6601 20.7123 10.6201 21.9923 10.6201V9.70008C21.9923 6.00008 20.7 5 17 5H12V11V20Z" fill="#F46060" stroke="#F46060" stroke-linecap="round" stroke-linejoin="round"/>
<path d="M12.0001 12V20H8.00012C6.52012 20 6.0237 19 4.7337 16.09C5.9437 15.61 6.5337 14.21 6.0237 13C5.5337 11.79 4.1437 11.21 2.9237 11.71C1.4837 8.19 3.00014 4 7.00013 4L12.0001 12Z" fill="white" stroke="white" stroke-linecap="round" stroke-linejoin="round"/>
</svg>
