<?xml version="1.0" encoding="UTF-8"?>
<svg width="42px" height="42px" viewBox="0 0 42 42" version="1.1" xmlns="http://www.w3.org/2000/svg" xmlns:xlink="http://www.w3.org/1999/xlink">
    <!-- Generator: Sketch 58 (84663) - https://sketch.com -->
    <title>favicon</title>
    <desc>Created with Sketch.</desc>
    <defs>
        <linearGradient x1="50%" y1="0%" x2="50%" y2="100%" id="linearGradient-1">
            <stop stop-color="#1DA3FB" offset="0%"></stop>
            <stop stop-color="#00FFFF" offset="100%"></stop>
        </linearGradient>
        <linearGradient x1="50%" y1="0%" x2="50%" y2="100%" id="linearGradient-2">
            <stop stop-color="#18CC54" offset="0%"></stop>
            <stop stop-color="#CAFF7A" offset="100%"></stop>
        </linearGradient>
        <path d="M15,7.5 L19.05,9.75 L19.05,20.25 L28.5,25.5 L37.95,20.25 L42,22.5 L28.5,30 L15,22.5 L15,7.5 Z" id="path-3"></path>
        <path d="M27,7.5 L27,22.5 L13.5,30 L0,22.5 L4.05,20.25 L13.5,25.5 L22.95,20.25 L22.95,9.75 L27,7.5 Z" id="path-4"></path>
    </defs>
    <g id="favicon" stroke="none" stroke-width="1" fill="none" fill-rule="evenodd">
        <g id="Group" transform="translate(0.000000, 6.000000)">
            <path d="M7.10542736e-14,22.5 L7.10542736e-14,7.5 L13.5,0 L27,7.5 L22.95,9.75 L13.5,4.5 L4.05,9.75 L4.05,20.25 L7.10542736e-14,22.5 Z" id="Combined-Shape" fill="url(#linearGradient-1)"></path>
            <path d="M37.95,9.75 L28.5,4.5 L19.05,9.75 L15,7.5 L28.5,0 L42,7.5 L42,22.5 L37.95,20.25 L37.95,9.75 Z" id="Combined-Shape" fill="url(#linearGradient-2)"></path>
            <g id="Combined-Shape">
                <use fill="url(#linearGradient-2)" xlink:href="#path-3"></use>
                <use fill-opacity="0.6" fill="#18CC54" style="mix-blend-mode: multiply;" xlink:href="#path-3"></use>
            </g>
            <g id="Combined-Shape">
                <use fill="url(#linearGradient-1)" xlink:href="#path-4"></use>
                <use fill-opacity="0.6" fill="#1DA3FB" style="mix-blend-mode: multiply;" xlink:href="#path-4"></use>
            </g>
        </g>
    </g>
</svg>