<svg width="41" height="40" viewBox="0 0 41 40" fill="none" xmlns="http://www.w3.org/2000/svg">
<path d="M38.3334 33.1262L33.6262 37.8333H7.37379L2.66669 33.1262V6.87376L7.37379 2.16666H33.6262L38.3334 6.87376V33.1262Z" stroke="white"/>
<path d="M32.1667 23.5C32.1667 28.015 28.515 31.6666 24 31.6666L25.225 29.625" stroke="#D1D7EB" stroke-linecap="round" stroke-linejoin="round"/>
<path d="M8.83331 16.5C8.83331 11.985 12.485 8.33334 17 8.33334L15.775 10.375" stroke="#D1D7EB" stroke-linecap="round" stroke-linejoin="round"/>
<path d="M27.1666 23.0562V16.6667L20.5 20.8334L13.8333 16.6667V23.0562C13.8333 23.2286 13.9221 23.3889 14.0683 23.4802L20.235 27.3344C20.3971 27.4357 20.6028 27.4357 20.765 27.3344L26.9316 23.4802C27.0778 23.3889 27.1666 23.2286 27.1666 23.0562Z" fill="white"/>
<path d="M27.1666 16.6667L20.5 20.8333L13.8333 16.6667L20.235 12.6656C20.3971 12.5643 20.6028 12.5643 20.765 12.6656L27.1666 16.6667Z" fill="#D1D7EB"/>
</svg>
