<svg width="40" height="40" viewBox="0 0 40 40" fill="none" xmlns="http://www.w3.org/2000/svg">
<path d="M37.8333 33.1262L33.1262 37.8333H6.87373L2.16663 33.1262V6.87376L6.87373 2.16666H33.1262L37.8333 6.87376V33.1262Z" stroke="white"/>
<path d="M14.256 23.9623L19.9083 11.0428C19.9433 10.9629 20.0566 10.9629 20.0916 11.0428L25.7439 23.9623C25.7785 24.0414 25.7033 24.1242 25.6212 24.0974L20.031 22.2721C20.0108 22.2655 19.9891 22.2655 19.9689 22.2721L14.3787 24.0974C14.2966 24.1242 14.2214 24.0414 14.256 23.9623Z" fill="white"/>
<path d="M19.9783 27.5048L12.6724 29.1284C12.5965 29.1452 12.5313 29.0729 12.5559 28.9991L13.3182 26.7119C13.3278 26.6833 13.3497 26.6605 13.378 26.6499L19.9649 24.1799C19.9875 24.1714 20.0125 24.1714 20.0351 24.1799L26.622 26.6499C26.6503 26.6605 26.6722 26.6833 26.6818 26.7119L27.4441 28.9991C27.4687 29.0729 27.4035 29.1452 27.3276 29.1284L20.0217 27.5048C20.0074 27.5017 19.9926 27.5017 19.9783 27.5048Z" fill="#D1D7EB"/>
<path d="M26.5457 20.5916L25.0322 17.5645C25.0129 17.526 25.0205 17.4795 25.0509 17.4491L28.078 14.422C28.1497 14.3503 28.2703 14.4185 28.2457 14.5169L26.7322 20.5711C26.7097 20.6612 26.5873 20.6746 26.5457 20.5916Z" fill="#D1D7EB"/>
<path d="M13.4542 20.5916L14.9677 17.5645C14.987 17.526 14.9794 17.4795 14.949 17.4491L11.9219 14.422C11.8502 14.3503 11.7296 14.4185 11.7542 14.5169L13.2677 20.5711C13.2902 20.6612 13.4127 20.6746 13.4542 20.5916Z" fill="#D1D7EB"/>
</svg>
