<svg width="40" height="40" viewBox="0 0 40 40" fill="none" xmlns="http://www.w3.org/2000/svg">
<path d="M37.8333 33.1262L33.1262 37.8333H6.87376L2.16666 33.1262V6.87376L6.87376 2.16666H33.1262L37.8333 6.87376V33.1262Z" stroke="white"/>
<path d="M17.2222 27.3611C17.2222 28.8868 15.7325 30.7848 14.935 31.6917C14.7585 31.8924 14.9015 32.2222 15.1687 32.2222H25.6997C25.9747 32.2222 26.1147 31.8745 25.9227 31.6777C25.0334 30.7654 23.3951 28.8789 23.3951 27.3611C23.3951 25.2778 23.3951 24.2361 27.0988 23.1944C29.7044 22.4616 30.6297 21.0414 30.9493 20.2636C31.0638 19.9851 30.8448 19.7222 30.5436 19.7222H15.5704C15.4599 19.7222 15.3704 19.8117 15.3704 19.9222V24.4447C15.3704 24.5281 15.4217 24.603 15.4968 24.6392C15.9142 24.8403 17.2222 25.6101 17.2222 27.3611Z" fill="white"/>
<path d="M14.4444 23.5356V20.2222C14.4444 19.9461 14.2206 19.7222 13.9444 19.7222H8.22206C8.01922 19.7222 7.94523 19.9893 8.11916 20.0937L14.1415 23.7071C14.2749 23.7871 14.4444 23.6911 14.4444 23.5356Z" fill="#D1D7EB"/>
<path d="M22.4757 11.3889C22.4757 11.3889 22.3582 11.9676 20.5951 14.2824C18.8908 16.4814 21.3591 18.1018 21.653 18.3333H21.7117C22.0643 18.0439 26.5309 15.2662 22.4757 11.3889Z" fill="#D1D7EB"/>
<path d="M21.3889 10.4352C21.3889 9.15544 20.8209 7.98696 20.2529 7.31926C20.0636 7.15233 19.748 7.20797 19.6849 7.43054C19.4324 8.26517 18.6751 10.0457 16.8449 12.1601C14.5097 14.8309 16.6555 17.7243 18.8644 18.2807C20.0636 18.5589 18.5489 17.7243 18.3595 15.9994C18.1702 13.8294 21.3889 12.2157 21.3889 10.4352Z" fill="white"/>
</svg>
