<svg width="20" height="20" viewBox="0 0 20 20" fill="none" xmlns="http://www.w3.org/2000/svg">
<path d="M10.8523 2.06587C10.3127 1.81178 9.6879 1.81178 9.1483 2.06587L4.06497 4.45948C3.36422 4.78945 2.91699 5.49437 2.91699 6.26892V12.2453C2.91699 12.9237 3.26091 13.5559 3.83049 13.9245L8.91382 17.2137C9.57499 17.6415 10.4257 17.6415 11.0868 17.2137L16.1702 13.9245C16.7397 13.5559 17.0837 12.9237 17.0837 12.2453V6.26892C17.0837 5.49437 16.6364 4.78945 15.9357 4.45948L10.8523 2.06587Z" stroke="#D1D7EB" stroke-width="1.5" stroke-linecap="round" stroke-linejoin="round"/>
<path d="M10.0003 8.33334C11.8413 8.33334 13.3337 7.7737 13.3337 7.08334C13.3337 6.39299 11.8413 5.83334 10.0003 5.83334C8.15938 5.83334 6.66699 6.39299 6.66699 7.08334C6.66699 7.7737 8.15938 8.33334 10.0003 8.33334Z" stroke="#D1D7EB" stroke-miterlimit="10" stroke-linecap="round" stroke-linejoin="round"/>
<path d="M10 10.8333V14.1667" stroke="#D1D7EB" stroke-width="1.5" stroke-miterlimit="10" stroke-linecap="round" stroke-linejoin="round"/>
</svg>
