<svg width="50" height="50" viewBox="0 0 50 50" fill="none" xmlns="http://www.w3.org/2000/svg">
<path fill-rule="evenodd" clip-rule="evenodd" d="M18.8343 13.9931C15.0553 14.6754 15.0552 20.8157 18.8342 21.4976H20.8L22.75 21.4976V20.7186C22.224 20.6298 21.7275 20.3549 21.368 19.9056C20.5918 18.9352 20.7491 17.5193 21.7194 16.743L23.5944 15.243C24.4162 14.5857 25.5838 14.5857 26.4056 15.243L28.2806 16.743C29.2509 17.5193 29.4082 18.9352 28.632 19.9056C28.2725 20.3549 27.776 20.6298 27.25 20.7186V21.4976L28.6147 21.4976C29.7202 21.5102 31.1155 21.498 32.3752 20.8157C35.5243 18.0867 33.7198 14.2798 30.1711 13.8619C30.1711 7.0393 18.8343 7.0092 18.8343 13.9931Z" fill="#D49C50"/>
<path d="M23.125 18.5L25 17M25 17L26.875 18.5M25 17V26" stroke="white" stroke-width="2" stroke-linecap="round" stroke-linejoin="round"/>
<path d="M8.75359 42.18C10.8116 42.18 12.2336 40.842 12.2336 38.79V33.36H10.7696V38.754C10.7696 40.038 9.82759 40.818 8.75359 40.818C7.70359 40.818 6.73759 40.056 6.73759 38.754V33.36L5.27359 33.372V38.79C5.27359 40.848 6.69559 42.18 8.75359 42.18ZM16.9703 35.34C16.2323 35.34 15.6323 35.574 15.1763 35.988V35.52H13.8983V44.88H15.3563V41.67C15.7943 41.994 16.3523 42.18 17.0243 42.18C18.8183 42.18 19.9823 40.704 19.9823 38.76C19.9823 36.792 18.8063 35.34 16.9703 35.34ZM16.8023 40.884C15.6383 40.884 15.1763 40.014 15.1763 38.76C15.1763 37.494 15.6503 36.636 16.7543 36.636C17.9183 36.636 18.4523 37.584 18.4523 38.76C18.4523 39.948 17.9303 40.884 16.8023 40.884ZM22.8708 42V33.18H21.4248V42H22.8708ZM27.5301 42.18C29.4681 42.18 30.7641 40.782 30.7641 38.76C30.7641 36.756 29.4861 35.34 27.5301 35.34C25.6161 35.34 24.3081 36.726 24.3081 38.76C24.3081 40.764 25.5801 42.18 27.5301 42.18ZM27.5301 40.824C26.4141 40.824 25.8381 40.02 25.8381 38.76C25.8381 37.536 26.3661 36.696 27.5301 36.696C28.6641 36.696 29.2341 37.506 29.2341 38.76C29.2341 39.978 28.6761 40.824 27.5301 40.824ZM37.1921 36.546C36.7661 35.688 35.8481 35.34 34.6961 35.34C33.1721 35.34 32.2781 36.066 31.9601 37.158L33.2801 37.572C33.4961 36.912 34.1141 36.666 34.6961 36.666C35.5781 36.666 35.9681 37.014 36.0221 37.758C34.8881 37.926 33.8861 38.064 33.2021 38.286C32.1761 38.64 31.7261 39.282 31.7261 40.224C31.7261 41.292 32.4881 42.18 33.8981 42.18C34.9301 42.18 35.6201 41.85 36.1721 41.13V42H37.4381V38.022C37.4381 37.464 37.4201 37.002 37.1921 36.546ZM35.8601 39.954C35.7161 40.404 35.1701 41.028 34.1861 41.028C33.5021 41.028 33.1421 40.68 33.1421 40.206C33.1421 39.786 33.4301 39.54 33.9281 39.354C34.3841 39.198 34.9721 39.108 36.0041 38.946C35.9981 39.246 35.9801 39.66 35.8601 39.954ZM43.2662 35.838C42.8342 35.52 42.3002 35.34 41.6522 35.34C39.8162 35.34 38.6402 36.792 38.6402 38.76C38.6402 40.704 39.8042 42.18 41.5982 42.18C42.3662 42.18 42.9842 41.94 43.4462 41.52V42H44.7242V33.36H43.2662V35.838ZM41.8202 40.884C40.6922 40.884 40.1702 39.948 40.1702 38.76C40.1702 37.584 40.7042 36.636 41.8682 36.636C42.9722 36.636 43.4462 37.494 43.4462 38.76C43.4462 40.014 42.9842 40.884 41.8202 40.884Z" fill="#D49C50"/>
</svg>
