<svg width="20" height="20" viewBox="0 0 20 20" fill="none" xmlns="http://www.w3.org/2000/svg">
<path fill-rule="evenodd" clip-rule="evenodd" d="M5.17002 8.48345C5.21802 8.46832 5.27033 8.48472 5.30107 8.52455C5.3318 8.56438 5.33439 8.61911 5.30763 8.6617C4.9604 9.21312 4.19229 10.433 3.92109 10.8638C3.86366 10.9551 3.75246 10.9967 3.64921 10.9658C3.11684 10.806 1.50619 10.3228 0.771109 10.1023C0.720691 10.0872 0.686044 10.041 0.685641 9.98832C0.685296 9.93571 0.719253 9.88898 0.76944 9.87315C1.72938 9.57002 4.27989 8.76455 5.17002 8.48345ZM6.4853 13.2186C6.52357 13.2148 6.56138 13.2296 6.58688 13.2584C6.61243 13.2871 6.62262 13.3264 6.61427 13.364C6.53042 13.7412 6.32345 14.6725 6.24915 15.0071C6.23212 15.0836 6.17882 15.1469 6.10636 15.1768C5.67994 15.3523 4.18895 15.9663 3.57612 16.2186C3.5314 16.2371 3.47994 16.2268 3.4457 16.1925C3.41145 16.1583 3.40115 16.1069 3.41963 16.0621C3.66861 15.4573 4.26981 13.9973 4.45433 13.5492C4.488 13.4674 4.56409 13.4108 4.6522 13.4019C5.03465 13.3637 6.07891 13.2593 6.4853 13.2186ZM14.69 11.5355C14.6427 11.5504 14.5911 11.5347 14.5601 11.4959C14.5292 11.4572 14.5254 11.4033 14.5504 11.3605C14.9046 10.7564 15.7556 9.30469 16.0525 8.7981C16.1125 8.69577 16.2383 8.65266 16.3485 8.69669C16.9133 8.92265 18.5757 9.58757 19.2712 9.86579C19.3182 9.88461 19.3484 9.93094 19.3465 9.98158C19.3446 10.0322 19.3111 10.0762 19.2627 10.0915C18.3258 10.3873 15.5971 11.249 14.69 11.5355ZM13.4955 6.76219C13.4573 6.76604 13.4195 6.75125 13.3939 6.72248C13.3684 6.6937 13.3582 6.65445 13.3666 6.61687C13.4504 6.2396 13.6573 5.30826 13.7317 4.97376C13.7487 4.89727 13.802 4.8339 13.8745 4.80403C14.3009 4.62843 15.7919 4.01451 16.4047 3.76219C16.4494 3.74377 16.5009 3.75407 16.5351 3.78826C16.5693 3.82251 16.5796 3.87396 16.5612 3.91874C16.3122 4.52345 15.711 5.98348 15.5265 6.4316C15.4928 6.51344 15.4167 6.57007 15.3286 6.57888C14.9462 6.61715 13.9019 6.72156 13.4955 6.76219ZM5.79361 8.28656C5.74561 8.3017 5.6933 8.2853 5.66256 8.24547C5.63183 8.20564 5.62924 8.15091 5.656 8.10832C5.92081 7.68783 6.41635 6.90078 6.6316 6.55885C6.65381 6.52357 6.65612 6.47925 6.63764 6.44184C6.61917 6.40443 6.58256 6.37934 6.54101 6.3756C6.16161 6.34107 5.33157 6.26561 4.99637 6.23517C4.9074 6.22705 4.83033 6.17019 4.79632 6.08766C4.61013 5.63534 4.00397 4.16328 3.75787 3.5657C3.73968 3.5215 3.74947 3.47074 3.78273 3.43649C3.81606 3.40219 3.86653 3.39097 3.9112 3.40789C4.74918 3.72495 7.38475 4.72219 8.22935 5.04179C8.29502 5.06665 8.34653 5.11902 8.37025 5.18515C8.3939 5.25128 8.38745 5.32449 8.35246 5.38544C8.00996 5.98228 7.14256 7.49376 6.93203 7.86061C6.9021 7.91281 6.85364 7.95183 6.79626 7.9699C6.59856 8.03235 6.11574 8.18481 5.79361 8.28656ZM8.70463 5.22158C8.58561 5.17658 8.52253 5.04645 8.56081 4.92512C8.79689 4.17744 9.58038 1.69664 9.87609 0.760175C9.8918 0.710276 9.93807 0.676376 9.99039 0.676376C10.0427 0.676376 10.089 0.710276 10.1047 0.760175C10.4859 1.9672 11.7051 5.82792 11.9872 6.72138C12.0214 6.82964 12.1268 6.89905 12.2398 6.88777C12.492 6.86256 12.9285 6.81888 13.1656 6.79517C13.2039 6.79137 13.2417 6.8061 13.2673 6.83488C13.2928 6.86366 13.303 6.90297 13.2946 6.94049C13.2401 7.18602 13.1381 7.64489 13.0944 7.84156C13.0811 7.90147 13.0913 7.96426 13.1229 8.01692C13.3076 8.32484 13.9617 9.41508 14.2102 9.82918C14.2671 9.92386 14.2519 10.0451 14.1735 10.1228C13.5311 10.7601 10.7626 13.5066 10.1228 14.1414C10.0938 14.1701 10.0814 14.2116 10.0899 14.2515C10.0984 14.2914 10.1266 14.3243 10.1648 14.3386C10.4409 14.4432 10.9781 14.6464 11.2762 14.7592C11.3952 14.8043 11.4583 14.9344 11.42 15.0557C11.1839 15.8033 10.4005 18.2842 10.1047 19.2207C10.089 19.2706 10.0427 19.3045 9.99039 19.3045C9.93807 19.3045 9.8918 19.2706 9.87609 19.2207C9.49491 18.0136 8.27574 14.1529 7.99355 13.2595C7.95943 13.1512 7.85399 13.0817 7.74107 13.0931C7.48881 13.1183 7.05232 13.1619 6.81514 13.1856C6.77686 13.1895 6.73911 13.1747 6.71355 13.1459C6.688 13.1171 6.67781 13.0779 6.68616 13.0403C6.74072 12.7948 6.84271 12.3359 6.88639 12.1393C6.89974 12.0793 6.88955 12.0166 6.85796 11.9639C6.67321 11.656 6.01905 10.5658 5.77059 10.1516C5.71379 10.057 5.72898 9.93577 5.80731 9.85802C6.44967 9.22072 9.21819 6.47419 9.85807 5.83943C9.88702 5.81071 9.8994 5.76921 9.89088 5.72933C9.88242 5.68944 9.85422 5.65658 9.81606 5.64213C9.53992 5.53767 9.00271 5.33439 8.70463 5.22158ZM13.0487 12.1202C13.0787 12.068 13.1272 12.029 13.1846 12.0109C13.3694 11.9525 13.8017 11.816 14.0958 11.7232C14.143 11.7082 14.1946 11.7239 14.2256 11.7627C14.2565 11.8015 14.2604 11.8553 14.2353 11.8981C13.9934 12.3107 13.5381 13.0875 13.3405 13.4246C13.3197 13.46 13.3185 13.5035 13.3373 13.54C13.356 13.5766 13.3922 13.6009 13.433 13.6046C13.8093 13.6389 14.6473 13.715 14.9845 13.7457C15.0734 13.7537 15.1505 13.8106 15.1845 13.8932C15.3707 14.3454 15.9769 15.8175 16.2229 16.4151C16.2412 16.4593 16.2314 16.5101 16.198 16.5443C16.1648 16.5786 16.1143 16.5899 16.0696 16.573C15.2316 16.2559 12.596 15.2586 11.7515 14.9391C11.6858 14.9142 11.6343 14.8618 11.6106 14.7956C11.5869 14.7295 11.5934 14.6563 11.6283 14.5954C11.9709 13.9985 12.8382 12.4871 13.0487 12.1202Z" fill="#D49C50"/>
</svg>
