<svg width="24" height="24" viewBox="0 0 24 24" fill="none" xmlns="http://www.w3.org/2000/svg">
<path d="M14.1875 11H19V17C19 19.2091 17.2091 21 15 21H9C6.79086 21 5 19.2091 5 17V11H9.8125" stroke="#D1D7EB"/>
<path d="M16 11H18.5C19.3284 11 20 10.3284 20 9.5V8.5C20 7.67157 19.3284 7 18.5 7H5.5C4.67157 7 4 7.67157 4 8.5V9.5C4 10.3284 4.67157 11 5.5 11H8" stroke="#D1D7EB"/>
<path d="M12 5C12 3.89543 12.8954 3 14 3V3C15.1046 3 16 3.89543 16 5V5C16 6.10457 15.1046 7 14 7H12V5Z" stroke="#D1D7EB"/>
<path d="M12 5C12 3.89543 11.1046 3 10 3V3C8.89543 3 8 3.89543 8 5V5C8 6.10457 8.89543 7 10 7H12V5Z" stroke="#D1D7EB"/>
<path d="M14 7L14 21L10 21L10 7L14 7Z" stroke="#D1D7EB"/>
</svg>
