<?xml version="1.0" encoding="UTF-8"?>
<svg width="24px" height="24px" viewBox="0 0 24 24" version="1.1" xmlns="http://www.w3.org/2000/svg" xmlns:xlink="http://www.w3.org/1999/xlink">
    <!-- Generator: Sketch 57.1 (83088) - https://sketch.com -->
    <title>icon/action-dislike</title>
    <desc>Created with Sketch.</desc>
    <g id="icon/action-dislike" stroke="none" stroke-width="1" fill="none" fill-rule="evenodd">
        <g id="like" transform="translate(2.000000, 2.000000)" fill-rule="nonzero" stroke="#9AABB8">
            <path d="M3.26476721,6.88617223 L0.652969067,6.88617223 C0.574116018,6.88617223 0.5,6.96331313 0.5,7.06684529 L0.5,19.3194084 C0.5,19.423427 0.573470257,19.5 0.652969067,19.5 L3.26476721,19.5 C3.3442477,19.5 3.41773627,19.4234047 3.41773627,19.3194084 L3.41773627,7.06684529 C3.41773627,6.96333155 3.3435995,6.88617223 3.26476721,6.88617223 Z M5.72367441,7.96292556 L5.72367441,18.138695 L16.1065237,18.138695 C17.1899029,18.1393557 17.9193861,16.8400866 17.3732291,15.8331294 L17.1557657,15.4321893 L17.5351006,15.1789141 C18.1840876,14.745597 18.4082802,13.8147953 18.0261996,13.1103583 L17.8087279,12.7094087 L18.1880783,12.4561346 C18.8370783,12.0228284 19.0612587,11.092039 18.6791686,10.3875846 L18.4616989,9.98663858 L18.8410437,9.73336335 C19.9560322,8.98892458 19.5790656,7.10710465 18.2828257,6.87855409 C18.2870287,6.87929629 17.0549564,6.87694789 15.8571064,6.87913354 C15.4655593,6.87984797 15.0499595,6.88084168 14.6227246,6.88204372 C14.3019925,6.88294611 14.0961705,6.88359069 13.7078048,6.88487982 C13.4110909,6.88591108 13.4110909,6.88591108 13.3427906,6.88616867 L12.6341562,6.88884122 L12.8692126,6.2203217 L13.5568968,4.26449245 C14.0111578,2.97127843 13.6103914,1.26276606 12.635958,0.720053959 C12.2888418,0.526707498 11.8228864,0.448977532 11.4955487,0.53487568 L11.495503,0.534887664 C11.3511782,0.572745994 11.2178789,0.677037052 11.1382653,0.817576802 C11.0845799,0.912356919 11.0617723,1.01790853 11.0302609,1.3006754 C11.0283201,1.31809271 11.0283201,1.31809271 11.0263318,1.33583635 C11.0123482,1.46027471 11.0018657,1.53899578 10.9861144,1.62557884 C10.8138234,2.57285925 10.3825875,3.44366554 9.74308211,4.09386136 C9.37747049,4.46559374 8.72255017,5.10275918 7.85647412,5.93294474 C7.83135534,5.95702079 7.83135534,5.95702079 7.80623361,5.9810926 C7.31631595,6.450501 6.79154033,6.95038818 6.26678351,7.44831088 C6.04811929,7.65579342 5.86318256,7.83096015 5.72367441,7.96292556 Z" id="Combined-Shape" transform="translate(10.000000, 10.000000) rotate(-180.000000) translate(-10.000000, -10.000000) "></path>
        </g>
    </g>
</svg>