<?xml version="1.0" encoding="UTF-8"?>
<svg width="24px" height="24px" viewBox="0 0 24 24" version="1.1" xmlns="http://www.w3.org/2000/svg" xmlns:xlink="http://www.w3.org/1999/xlink">
    <!-- Generator: Sketch 57.1 (83088) - https://sketch.com -->
    <title>icon/action-disliked</title>
    <desc>Created with Sketch.</desc>
    <g id="icon/action-disliked" stroke="none" stroke-width="1" fill="none" fill-rule="evenodd">
        <g id="like" transform="translate(2.000000, 2.000000)" fill="#E14D58" fill-rule="nonzero">
            <path d="M3.26476721,6.38617223 C3.62379082,6.38617223 3.91773627,6.69101928 3.91773627,7.06684529 L3.91773627,7.06684529 L3.91773627,19.3194084 C3.91773627,19.6950308 3.62511895,20 3.26476721,20 L3.26476721,20 L0.652969067,20 C0.292617329,20 -2.14050999e-13,19.6950715 -2.14050999e-13,19.3194084 L-2.14050999e-13,19.3194084 L-2.14050999e-13,7.06684529 C-2.14050999e-13,6.69101928 0.293906393,6.38617223 0.652969067,6.38617223 L0.652969067,6.38617223 Z M11.3686383,0.0512500319 C11.8515682,-0.075477732 12.4505529,0.0444494097 12.8792641,0.283244913 C14.1959444,1.0165719 14.5031711,3.07927801 14.0286396,4.43019923 L14.0286396,4.43019923 L13.3409049,6.38617223 C13.3409049,6.38617223 18.2646182,6.36760286 18.3697745,6.38617223 C20.1102832,6.6930554 20.6082912,9.15463633 19.1186811,10.1491968 C19.6243064,11.0814114 19.3290719,12.2955465 18.4657121,12.8719705 C18.9713373,13.8041851 18.6760637,15.0183202 17.812743,15.5947442 C18.5370012,16.9300688 17.574657,18.6395905 16.1062187,18.6386949 L16.1062187,18.6386949 L5.22367441,18.6386949 L5.22367441,7.74751835 C5.22367441,7.74751835 8.37285562,4.7739768 9.38660611,3.74325494 C9.96805171,3.15208946 10.3435206,2.36447967 10.4941848,1.53610686 C10.5535989,1.2095141 10.5363723,0.865695816 10.7032083,0.571151498 C10.8482865,0.315049021 11.0916851,0.123898596 11.3686383,0.0512500319 Z" id="Combined-Shape" transform="translate(10.000000, 10.000000) rotate(-180.000000) translate(-10.000000, -10.000000) "></path>
        </g>
    </g>
</svg>