<?xml version="1.0" encoding="UTF-8"?>
<svg width="23px" height="23px" viewBox="0 0 23 23" version="1.1" xmlns="http://www.w3.org/2000/svg" xmlns:xlink="http://www.w3.org/1999/xlink">
    <!-- Generator: sketchtool 58 (101010) - https://sketch.com -->
    <title>EC170216-0546-483D-957E-5E27CA3FD454</title>
    <desc>Created with sketchtool.</desc>
    <g id="會員專區" stroke="none" stroke-width="1" fill="none" fill-rule="evenodd">
        <g id="6.會員/好友名單" transform="translate(-141.000000, -265.000000)" fill-rule="nonzero">
            <g id="content" transform="translate(120.000000, 152.000000)">
                <g id="card/board" transform="translate(0.000000, 92.000000)">
                    <g id="board">
                        <g id="icon/ban-icon/add_friends" transform="translate(20.000000, 20.000000)">
                            <g id="add-user" transform="translate(1.000000, 1.000000)">
                                <path d="M12.5818516,14.3117305 L11.8716211,13.9241523 C11.5599687,13.7543828 11.3667383,13.4284219 11.3667383,13.0735 L11.3667383,11.8605781 C11.6120469,11.539 12.3149297,10.5365391 12.6508164,9.20665625 C12.9973164,8.92873437 13.2000859,8.51292578 13.2000859,8.06669531 L13.2000859,6.6 C13.2000859,6.24688281 13.0680859,5.90442188 12.8334336,5.6375 L12.8334336,3.68684766 C12.8539727,3.48553906 12.9342812,2.28473437 12.0660117,1.29434766 C11.3131992,0.435230469 10.0907383,0 8.43339062,0 C6.77569922,0 5.55358203,0.435230469 4.80046875,1.29434766 C3.93219922,2.28473437 4.01250781,3.48553906 4.03339062,3.68684766 L4.03339062,5.6375 C3.79835156,5.90442187 3.66673828,6.24688281 3.66673828,6.6 L3.66673828,8.06665234 C3.66673828,8.51288281 3.86912109,8.92869141 4.21562109,9.20661328 C4.55150781,10.5364961 5.25439062,11.539 5.50004297,11.8605352 L5.50004297,13.073457 C5.50004297,13.4283789 5.30642578,13.7543398 4.99477344,13.9241094 L1.72373437,15.7086875 C0.660386719,16.2887656 4.296875e-05,17.4012266 4.296875e-05,18.6123438 L4.296875e-05,20.1666523 C4.296875e-05,20.3690352 0.163925781,20.5333047 0.366695313,20.5333047 L12.8436172,20.5333047 C12.1498867,19.6126133 11.7333477,18.4722656 11.7333477,17.2333047 C11.7333906,16.1593867 12.0472344,15.1594609 12.5818516,14.3117305 Z" id="Path" fill="#374754"></path>
                                <path d="M15,8.24475298 C18.7254327,8.24475298 21.755247,11.2745673 21.755247,15 C21.755247,18.7254327 18.7254327,21.755247 15,21.755247 C11.2745673,21.755247 8.24475298,18.7254327 8.24475298,15 C8.24475298,11.2745673 11.2745673,8.24475298 15,8.24475298 Z" id="Shape" stroke="#FFFFFF" stroke-width="1.51049405" fill="#374754"></path>
                                <path d="M17.5714429,15.4285571 L15.4285571,15.4285571 L15.4285571,17.5714429 C15.4285571,17.8079956 15.2365527,18 15,18 C14.7634473,18 14.5714429,17.8079956 14.5714429,17.5714429 L14.5714429,15.4285571 L12.4285571,15.4285571 C12.1920044,15.4285571 12,15.2365527 12,15 C12,14.7634473 12.1920044,14.5714429 12.4285571,14.5714429 L14.5714429,14.5714429 L14.5714429,12.4285571 C14.5714429,12.1920044 14.7634473,12 15,12 C15.2365527,12 15.4285571,12.1920044 15.4285571,12.4285571 L15.4285571,14.5714429 L17.5714429,14.5714429 C17.8079956,14.5714429 18,14.7634473 18,15 C18,15.2365527 17.8079956,15.4285571 17.5714429,15.4285571 Z" id="Path" stroke="#FFFFFF" stroke-width="0.503498016" fill="#FFFFFF"></path>
                            </g>
                        </g>
                    </g>
                </g>
            </g>
        </g>
    </g>
</svg>