<?xml version="1.0" encoding="UTF-8"?>
<svg width="24px" height="24px" viewBox="0 0 24 24" version="1.1" xmlns="http://www.w3.org/2000/svg" xmlns:xlink="http://www.w3.org/1999/xlink">
    <!-- Generator: Sketch 57.1 (83088) - https://sketch.com -->
    <title>icon/ban</title>
    <desc>Created with Sketch.</desc>
    <g id="icon/ban" stroke="none" stroke-width="1" fill="none" fill-rule="evenodd">
        <g id="noun_ban_45999" transform="translate(4.000000, 4.000000)" fill="#E14D58" fill-rule="nonzero">
            <path d="M7.55023041,0 C3.39194101,0 0,3.39194101 0,7.55023041 C0,11.7085198 3.39194101,15.1004608 7.55023041,15.1004608 C11.7085198,15.1004608 15.1004608,11.7085198 15.1004608,7.55023041 C15.1004608,3.39194101 11.7085198,0 7.55023041,0 Z M7.55023041,1.8875576 C8.76676129,1.8875576 9.90307097,2.27261935 10.8241991,2.92005161 L2.92005161,10.8241991 C2.27261935,9.90307097 1.8875576,8.76676129 1.8875576,7.55023041 C1.8875576,4.41122212 4.41122212,1.8875576 7.55023041,1.8875576 Z M12.1804092,4.27626175 C12.8278415,5.19738986 13.2129032,6.33369954 13.2129032,7.55023041 C13.2129032,10.6892387 10.6892387,13.2129032 7.55023041,13.2129032 C6.33369954,13.2129032 5.19738986,12.8278415 4.27626175,12.1804092 L12.1804092,4.27626175 Z" id="Shape"></path>
        </g>
    </g>
</svg>