<?xml version="1.0" encoding="UTF-8"?>
<svg width="50px" height="50px" viewBox="0 0 50 50" version="1.1" xmlns="http://www.w3.org/2000/svg" xmlns:xlink="http://www.w3.org/1999/xlink">
    <!-- Generator: Sketch 57.1 (83088) - https://sketch.com -->
    <title>icon/crypto/BCH</title>
    <desc>Created with Sketch.</desc>
    <g id="icon/crypto/BCH" stroke="none" stroke-width="1" fill="none" fill-rule="evenodd">
        <g id="4-bitcoin-cash-logo-flag" transform="translate(10.000000, 16.000000)" fill-rule="nonzero">
            <path d="M21.4739875,18.5144237 C24.3867601,16.47081 26.2901869,13.0876324 26.2901869,9.25878505 C26.2901869,5.42993769 24.3868224,2.04361371 21.4739875,0 L29.9693146,0 L29.9693146,18.5144237 L21.4739875,18.5144237 Z" id="Path" fill="#F7941D"></path>
            <path d="M3.68847352,9.25566978 C3.68847352,13.0843302 5.59190031,16.4675078 8.5046729,18.5113084 L0,18.5113084 L0,0 L8.50485981,0 C5.59190031,2.04361371 3.68847352,5.42679128 3.68847352,9.25566978 Z" id="Path" fill="#F7941D"></path>
            <circle id="Oval" fill="#F7941D" cx="14.9847352" cy="9.2511838" r="9.24937695"></circle>
            <path d="M19.3229283,9.63551402 L19.3177882,9.62595016 L19.3169159,9.62436137 C19.3138006,9.6147352 19.3114642,9.6046729 19.3079128,9.59426791 L19.3074766,9.59345794 L19.3070405,9.59264798 L19.3066044,9.59183801 L19.3061682,9.59102804 L19.3057321,9.59021807 L19.305296,9.5894081 L19.3044237,9.58781931 C19.1958562,9.22472379 18.980606,8.9026681 18.6866355,8.6634891 L18.6861994,8.66267913 C18.6775078,8.65604361 18.6683801,8.64862928 18.6596573,8.64202492 L18.6476324,8.63308411 L18.6389408,8.62647975 L18.6352025,8.62336449 L18.6269159,8.61753894 L18.6231776,8.61442368 L18.614891,8.60859813 L18.6111526,8.60548287 L18.6024611,8.5988785 L18.5979128,8.59616822 L18.5892212,8.58956386 L18.5846729,8.58685358 L18.5753271,8.58062305 L18.5707788,8.57791277 L18.5652648,8.56956386 L18.5603115,8.56607477 L18.5509657,8.55984424 L18.5460125,8.55635514 L18.5365109,8.55012461 L18.5315576,8.54663551 L18.5222118,8.54040498 L18.5172586,8.53691589 L18.5073209,8.52993769 L18.5023676,8.5264486 L18.4916511,8.51987539 L18.4866978,8.51638629 L18.4759813,8.50981308 L18.471028,8.50632399 L18.4603115,8.49975078 L18.4553583,8.49626168 L18.4446417,8.48968847 L18.4388785,8.48657321 L18.428162,8.48 L18.4223988,8.47688474 L18.4108723,8.47065421 L18.405109,8.46753894 L18.3931464,8.46062305 L18.3873832,8.45750779 L18.3754206,8.4505919 L18.3696573,8.44747664 L18.3576947,8.44056075 L18.3514642,8.43669782 L18.3395016,8.42978193 L18.333271,8.425919 L18.3205296,8.4194081 L18.3142991,8.41554517 L18.3015576,8.40903427 L18.2929283,8.40442368 L18.2924922,8.40361371 C18.2862617,8.39975078 18.2797508,8.3971028 18.2735514,8.39323988 C18.0090912,8.25731578 17.7235494,8.16709257 17.4290031,8.12638629 C17.5116083,8.03761154 17.5872527,7.9426057 17.6552648,7.84221184 L17.6661059,7.82610592 L17.6669159,7.82566978 L17.6719315,7.81781931 L17.6785047,7.8071028 L17.6819938,7.80214953 L17.688567,7.79143302 L17.6920561,7.78647975 L17.6986293,7.77576324 L17.7021184,7.77080997 L17.7086916,7.76009346 L17.7121807,7.75514019 L17.7187539,7.74442368 L17.722243,7.7394704 L17.7280062,7.72915888 L17.7314953,7.72420561 L17.7372586,7.71389408 L17.7399688,7.70934579 L17.7457321,7.69903427 L17.7484424,7.69448598 L17.7542056,7.68417445 L17.7569159,7.67962617 L17.7618692,7.66975078 L17.7645794,7.66520249 L17.7695327,7.6553271 L17.772243,7.65077882 L17.7771963,7.64090343 L17.7799065,7.63635514 L17.7852648,7.62728972 L17.7879751,7.62274143 L17.7933645,7.61367601 L17.7960748,7.60912773 L17.8006854,7.60049844 L17.8033956,7.59595016 L17.8080062,7.58732087 L17.8099065,7.58320872 L17.8145171,7.57457944 L17.8164174,7.57046729 L17.821028,7.56183801 L17.8229283,7.55772586 L17.8275389,7.54909657 L17.8294393,7.54498442 L17.8332399,7.53676012 L17.8351402,7.53264798 L17.8389408,7.52442368 L17.8408411,7.52031153 L17.8446417,7.51208723 L17.8465421,7.50797508 L17.8507165,7.49862928 L17.8564174,7.48616822 C17.8605919,7.47682243 17.8639564,7.46772586 17.8681308,7.4582866 L17.8689408,7.45785047 C17.9956815,7.14545945 18.0253936,6.80213713 17.9542056,6.47261682 L17.9537695,6.47180685 L17.9528972,6.47021807 L17.9524611,6.4694081 L17.9520249,6.46859813 L17.9515888,6.46778816 L17.9511526,6.46697819 L17.9507165,6.46616822 L17.9502804,6.46535826 C17.9483801,6.45601246 17.9464798,6.44685358 17.9438006,6.43800623 L17.9438006,6.43598131 L17.9433645,6.43517134 L17.9429283,6.43436137 L17.9424922,6.4335514 L17.9429283,6.43436137 L17.9390654,6.42719626 C17.9362617,6.41433022 17.9334268,6.40146417 17.9293769,6.3882243 C17.9265732,6.37535826 17.9225234,6.36211838 17.9189097,6.34965732 L17.9142056,6.34090343 L17.9133333,6.33931464 C17.9106231,6.33049844 17.9079439,6.32165109 17.9052336,6.31283489 L17.9047975,6.31202492 L17.9043614,6.31121495 L17.9039252,6.31040498 L17.9034891,6.30959502 L17.903053,6.30878505 L17.9026168,6.30797508 L17.9022118,6.30716511 C17.8057929,5.98404337 17.6142877,5.69745315 17.352648,5.4847352 L17.352243,5.48392523 C17.3447664,5.4776947 17.3364798,5.47183801 17.3290031,5.46560748 L17.3186604,5.45781931 L17.3103738,5.45199377 L17.3066355,5.4488785 L17.299595,5.44342679 L17.2958567,5.44031153 L17.2888162,5.43485981 L17.2850779,5.43174455 L17.2772274,5.42672897 L17.2734891,5.42361371 L17.2652025,5.41778816 L17.2614642,5.4146729 L17.2531776,5.40884735 L17.2494393,5.40573209 L17.2411526,5.39990654 L17.2366044,5.39719626 L17.2283178,5.39137072 L17.2237695,5.38866044 L17.2154829,5.38283489 L17.2109346,5.38012461 L17.2018692,5.3747352 L17.1973209,5.37202492 L17.1882555,5.36663551 L17.1837072,5.36392523 L17.1746417,5.35853583 L17.1700935,5.35582555 L17.161028,5.35043614 L17.1564798,5.34772586 L17.1469782,5.34149533 L17.1424299,5.33878505 L17.1329283,5.33255452 L17.1283801,5.32984424 L17.1180685,5.324081 L17.1135202,5.32137072 L17.1032399,5.31560748 L17.0982866,5.31211838 L17.0879751,5.30635514 L17.0830218,5.30286604 L17.0727414,5.2971028 L17.0677882,5.29361371 L17.0570717,5.2870405 L17.0513084,5.28392523 L17.0405919,5.27735202 L17.0348287,5.27423676 L17.0233022,5.26800623 L17.0175389,5.26489097 L17.0060125,5.25866044 L16.9977882,5.25485981 L16.997352,5.25404984 L16.9800623,5.24470405 C16.4749533,4.98218069 15.8332399,4.90314642 15.1876012,5.06878505 L15.0196573,5.11190031 L14.5948598,3.4576947 L13.6104361,3.71003115 L14.0338318,5.3576947 L13.2461059,5.56074766 L12.8224299,3.91834891 L11.8380062,4.17068536 L12.2614019,5.81834891 L10.2312773,6.34074766 L10.5014019,7.3905919 L11.3194081,7.18049844 C11.4495896,7.14694071 11.587773,7.16654313 11.7034853,7.23498289 C11.8191977,7.30342265 11.9029348,7.41507834 11.9362305,7.5453271 L11.9362305,7.5453271 L13.0716511,11.9633022 C13.1179402,12.143977 13.0092346,12.3280239 12.8286604,12.374704 L12.1119003,12.5590966 L12.1540187,13.8076947 L14.1817445,13.2866044 L14.6105919,14.9312773 L15.5945171,14.6780997 L15.1708411,13.0296262 L15.9583178,12.8277259 L16.3821495,14.4761682 L17.3660748,14.2229907 L16.94081,12.5680997 C17.1075389,12.524486 17.2509657,12.4874766 17.3501869,12.4618069 C18.0777882,12.2746729 18.6661682,11.8480997 19.0222118,11.3161682 L19.0342368,11.2984112 L19.0350467,11.2979751 L19.0408723,11.2896885 L19.0485981,11.2772274 L19.0524611,11.2709969 L19.0601869,11.2585358 L19.0640498,11.2523053 L19.0709657,11.2403427 L19.0748287,11.2341121 L19.0817445,11.2221495 L19.0848598,11.2163863 L19.0917757,11.2044237 L19.094891,11.1986604 L19.1018069,11.1866978 L19.1049221,11.1809346 L19.1111526,11.1694081 L19.1142679,11.1636449 L19.1204984,11.1521184 L19.1236137,11.1463551 L19.1301869,11.1356386 L19.1333022,11.1298754 L19.1398754,11.1191589 L19.1429907,11.1133956 L19.1487539,11.1030841 L19.1518692,11.0973209 L19.1576324,11.0870405 L19.1607477,11.0812773 L19.1665109,11.0709969 L19.168785,11.0656698 L19.1745483,11.0553894 L19.1768224,11.0500623 L19.1817757,11.0401869 L19.184486,11.0356386 L19.1894393,11.0257632 L19.1921495,11.021215 L19.1971028,11.0113396 L19.1998131,11.0067913 L19.2047664,10.9969159 L19.2074766,10.9923676 L19.2124299,10.9824922 L19.2151402,10.9779439 L19.2200935,10.9680685 L19.2228037,10.9635202 L19.2269782,10.9541745 L19.2296885,10.9496262 L19.2338629,10.9402804 L19.2357632,10.9361682 L19.2403115,10.925514 L19.2465421,10.9119626 C19.2510903,10.9013084 19.2558879,10.891433 19.2597819,10.8811838 L19.2601558,10.8799688 C19.4025586,10.5285475 19.4360531,10.1424382 19.3562928,9.77174455 L19.3558567,9.77093458 L19.3554206,9.77012461 L19.3549844,9.76931464 L19.3545483,9.76850467 L19.3541121,9.7676947 L19.353676,9.76688474 L19.3532399,9.76607477 L19.3528037,9.7652648 C19.3504673,9.75520249 19.348162,9.74517134 19.3458255,9.73510903 L19.3458255,9.73308411 L19.3453894,9.73227414 L19.3449533,9.73146417 L19.3445171,9.73065421 L19.344081,9.72984424 L19.3436449,9.72903427 L19.3432087,9.7282243 L19.3427726,9.72741433 L19.3423364,9.72660436 L19.3419003,9.72579439 L19.3414642,9.72498442 L19.341028,9.72417445 L19.3405919,9.72336449 L19.3401558,9.72255452 L19.3384424,9.71943925 C19.3347664,9.70498442 19.3319003,9.69009346 19.3274143,9.67604361 C19.325919,9.66766355 19.3238318,9.65233645 19.3229283,9.63551402 Z M13.5390966,6.68003115 C13.7070405,6.63691589 14.401433,6.46252336 14.630405,6.40299065 C14.9944237,6.30981308 15.3531464,6.34598131 15.6332087,6.48087227 L15.6425545,6.48504673 L15.6425545,6.48504673 L15.6466667,6.48694704 L15.6524299,6.49006231 L15.655296,6.49158879 L15.6610592,6.49470405 L15.6639252,6.49623053 L15.6696885,6.49934579 L15.6725545,6.50087227 L15.6783178,6.50398754 L15.6811838,6.50551402 L15.686947,6.50862928 L15.6898131,6.51015576 L15.6955763,6.51327103 L15.6984424,6.51479751 L15.7042056,6.51791277 L15.7070717,6.51943925 L15.7128349,6.52255452 L15.7157009,6.524081 L15.7214642,6.52719626 L15.7243302,6.52872274 L15.7292835,6.53221184 L15.7321495,6.53373832 L15.7371028,6.53722741 L15.7399688,6.53875389 L15.7449221,6.54224299 L15.7477882,6.54376947 L15.7523364,6.54647975 L15.7552025,6.54800623 L15.7597508,6.55071651 L15.7626168,6.55224299 L15.7671651,6.55495327 L15.7700312,6.55647975 L15.7745794,6.55919003 L15.7774455,6.56071651 L15.7819938,6.56342679 L15.784081,6.56538941 L15.7886293,6.56809969 L15.7902804,6.56925234 L15.7948287,6.57196262 L15.7964798,6.57311526 L15.801028,6.57582555 L15.8026791,6.57697819 L15.8072274,6.57968847 L15.8088785,6.58084112 L15.8126168,6.58395639 L15.8142679,6.58510903 L15.8188162,6.58781931 L15.8250467,6.59168224 C15.829595,6.59439252 15.8337383,6.59831776 15.8382866,6.60102804 L15.8382866,6.60102804 C15.9816529,6.70925451 16.0869951,6.86016719 16.1391589,7.03205607 L16.1391589,7.03205607 L16.1404361,7.03445483 C16.1417757,7.0388785 16.1435514,7.044081 16.144891,7.04850467 L16.1453271,7.04931464 L16.1479128,7.054081 C16.1497508,7.06130841 16.1519626,7.06732087 16.1538006,7.07454829 C16.1558065,7.08192826 16.1571206,7.08947906 16.1577259,7.0971028 L16.1603115,7.10186916 L16.1607477,7.10267913 C16.1614435,7.10761678 16.1626761,7.11246375 16.1644237,7.11713396 L16.1657009,7.11953271 L16.1657009,7.11953271 C16.2025185,7.295214 16.182893,7.47803629 16.1096262,7.64190031 L16.1096262,7.64190031 L16.1031776,7.65666667 L16.0997508,7.66364486 L16.0970405,7.66819315 L16.0962928,7.67065421 L16.0943925,7.67476636 L16.0936449,7.67722741 L16.0909346,7.6817757 L16.0901869,7.68423676 L16.0874766,7.68878505 L16.086729,7.69124611 L16.0840187,7.69579439 L16.083271,7.69825545 L16.0805607,7.70280374 L16.0798131,7.7052648 L16.0771028,7.70981308 L16.0763551,7.71227414 L16.0736449,7.71682243 L16.0721184,7.71968847 L16.0694081,7.72423676 L16.0678816,7.7271028 L16.0651713,7.73165109 L16.0636449,7.73451713 L16.0609346,7.73906542 L16.0594081,7.74193146 L16.055919,7.74688474 L16.0543925,7.74975078 L16.0509034,7.75470405 L16.0493769,7.75757009 L16.0458879,7.76252336 L16.0443614,7.76538941 L16.0408723,7.77034268 L16.0393458,7.77320872 L16.0358567,7.77816199 L16.0343302,7.78102804 L16.0308411,7.78598131 L16.0293146,7.78884735 L16.0258255,7.79380062 L16.0242991,7.79666667 L16.02081,7.80161994 L16.0192835,7.80448598 L16.0149844,7.80987539 L16.0134579,7.81274143 L16.0091589,7.81813084 L16.0076324,7.82099688 L16.0033333,7.82638629 L16.0018069,7.82925234 L15.9975078,7.83464174 L15.9943925,7.83838006 L15.9943925,7.83838006 L15.988567,7.84666667 C15.8075389,8.10031153 15.5108723,8.30523364 15.1468536,8.39841121 C14.9174455,8.45716511 14.2247352,8.63878505 14.056947,8.68190031 L13.5390966,6.68003115 Z M17.3868224,10.0670405 L17.3894081,10.0718069 L17.3898442,10.0726168 C17.39081,10.0782555 17.3921807,10.0826791 17.3931464,10.0881931 L17.3931464,10.0881931 L17.3935826,10.0890031 L17.3935826,10.0890031 L17.3940187,10.0898131 L17.3944548,10.0906231 L17.394891,10.091433 L17.394891,10.091433 C17.4337232,10.2851929 17.4058228,10.4863921 17.3157321,10.6622741 L17.3157321,10.6622741 L17.3069159,10.6783178 L17.3026791,10.6857321 L17.2995639,10.6914953 L17.2980374,10.6943614 L17.2953271,10.6989097 L17.2938006,10.7017757 L17.2910903,10.706324 L17.2895639,10.70919 L17.2860748,10.7141433 L17.2845483,10.7170093 L17.2810592,10.7219626 L17.2795327,10.7248287 L17.2760436,10.7297819 L17.2745171,10.732648 L17.271028,10.7376012 L17.2695016,10.7404673 L17.2660125,10.7454206 L17.264486,10.7482866 L17.2609969,10.7532399 L17.2594704,10.7561059 L17.2559813,10.7610592 L17.2544548,10.7639252 L17.2509657,10.7688785 L17.2494393,10.7717445 L17.2459502,10.7766978 L17.2444237,10.7795639 L17.2401246,10.7849533 L17.2385981,10.7878193 L17.2342991,10.7932087 L17.2327726,10.7960748 L17.2289097,10.8023053 L17.2273832,10.8051713 L17.2235202,10.8114019 L17.2219938,10.8142679 L17.2181308,10.8204984 L17.2157944,10.8238006 L17.2119315,10.8300312 L17.209595,10.8333333 L17.2049221,10.8399377 L17.2025857,10.8432399 L17.1979128,10.8498442 L17.1955763,10.8531464 L17.1909034,10.8597508 L17.188567,10.863053 L17.1838629,10.8696573 L17.1815265,10.8729595 L17.1768536,10.8795639 L17.1729283,10.8837383 L17.1729283,10.8837383 L17.165514,10.892866 C16.9456698,11.1736137 16.5910592,11.4045483 16.1603738,11.515109 C15.8887539,11.5852336 15.0680685,11.7998754 14.8683801,11.8508411 L14.3096573,9.67685358 C14.5090343,9.62507788 15.3319003,9.41847352 15.6034891,9.34834891 C16.0342056,9.23778816 16.4570717,9.26915888 16.7838941,9.40872274 L16.7945483,9.41327103 L16.7945483,9.41327103 L16.7998754,9.41554517 L16.8076636,9.41866044 L16.8113396,9.41975078 L16.8183178,9.42317757 L16.8219938,9.42426791 L16.828972,9.4276947 L16.832648,9.42878505 L16.8396262,9.43221184 L16.8424922,9.43373832 L16.8494704,9.43716511 L16.8523364,9.43869159 L16.8593146,9.44211838 L16.8621807,9.44364486 L16.8691589,9.44707165 L16.8720249,9.44859813 L16.8777882,9.4517134 L16.8806542,9.45323988 L16.8864174,9.45635514 L16.8892835,9.45788162 L16.8950467,9.46099688 L16.8979128,9.46252336 L16.903676,9.46563863 L16.9065421,9.46716511 L16.9123053,9.47028037 L16.9151713,9.47180685 L16.9209346,9.47492212 L16.9238006,9.4764486 L16.9295639,9.47956386 L16.9324299,9.48109034 L16.9381931,9.48420561 L16.9410592,9.48573209 L16.9468224,9.48884735 L16.9496885,9.49037383 L16.9546417,9.49386293 L16.9575078,9.49538941 L16.9624611,9.4988785 L16.9653271,9.50040498 L16.9702804,9.50389408 L16.9731464,9.50542056 L16.9780997,9.50890966 L16.9809657,9.51043614 L16.985919,9.51392523 L16.988785,9.51545171 L16.9933333,9.51816199 L16.9961994,9.51968847 L17.0011526,9.52317757 L17.007757,9.52785047 C17.0127103,9.53133956 17.0184735,9.53442368 17.0233333,9.53791277 L17.0233333,9.53791277 C17.1868547,9.6488027 17.3081754,9.81162474 17.3676636,10.0000312 L17.3676636,10.0000312 L17.3693769,10.0031464 C17.3711526,10.0083489 17.3724922,10.0127726 17.3742679,10.0179751 L17.374704,10.018785 L17.3772897,10.0235514 C17.3791277,10.0307788 17.3809657,10.0380062 17.3832399,10.0460436 C17.3872586,10.0478193 17.3879128,10.0566978 17.3866355,10.0676636 L17.3868224,10.0670405 Z" id="Shape" fill="#FFFFFF"></path>
        </g>
    </g>
</svg>