<?xml version="1.0" encoding="UTF-8"?>
<svg width="50px" height="50px" viewBox="0 0 50 50" version="1.1" xmlns="http://www.w3.org/2000/svg" xmlns:xlink="http://www.w3.org/1999/xlink">
    <!-- Generator: Sketch 57.1 (83088) - https://sketch.com -->
    <title>icon/crypto/bit</title>
    <desc>Created with Sketch.</desc>
    <g id="icon/crypto/bit" stroke="none" stroke-width="1" fill="none" fill-rule="evenodd">
        <path d="M25.3662148,14.441611 C25.9286891,14.6057961 26.4349159,14.7152528 26.9973902,14.8247096 C27.1661325,14.8794379 27.1661325,14.9341663 27.1098851,15.043623 C26.8848954,15.919277 26.6599057,16.8496593 26.4349159,17.7253132 C26.4349159,17.7800415 26.4349159,17.8347699 26.3786685,17.9442267 C26.8286479,18.0536834 27.3348748,18.1631401 27.7848542,18.2725969 C27.8411016,18.2725969 27.897349,18.1631401 27.9535965,18.1084118 C28.1223388,17.396943 28.291081,16.7402025 28.5160707,16.0287337 C28.5723182,15.8098202 28.6285656,15.5909067 28.684813,15.3719933 C28.684813,15.2625365 28.7410605,15.2078081 28.8535553,15.2625365 C29.4160296,15.4267216 29.9785038,15.5361784 30.5972255,15.7003635 C30.653473,15.7003635 30.653473,15.7550918 30.7097204,15.7550918 C30.5409781,16.4665607 30.3722358,17.1233011 30.2034936,17.7800415 C30.1472461,18.0536834 30.0909987,18.3273252 29.9785038,18.6009671 C29.9222564,18.7651522 29.9785038,18.8198806 30.1472461,18.8746089 C30.7659678,19.1482508 31.3846895,19.4218927 32.0034112,19.6955345 C32.5658855,20.0239047 33.0721123,20.4617317 33.4658443,21.0090154 C33.9720712,21.8299409 34.0283186,22.7055949 33.8033289,23.5812488 C33.6345866,24.1832609 33.4095969,24.7305446 32.9596175,25.1683715 C32.6221329,25.4967417 32.1721535,25.7156552 31.7221741,25.8798403 C31.6659267,25.8798403 31.6096792,25.9345687 31.4971844,25.9345687 C31.7221741,26.0987538 31.9471638,26.2082106 32.1721535,26.3723957 C32.8471226,26.864951 33.297102,27.4669631 33.5220917,28.2331603 C33.6345866,28.8351723 33.5783392,29.4919128 33.4095969,30.0939248 C33.1846072,30.860122 32.90337,31.5168625 32.3971432,32.1188745 C31.7784215,32.8303434 30.9909575,33.2134419 30.0909987,33.3228987 C28.9098027,33.4870838 27.7848542,33.3776271 26.6599057,33.2134419 C26.4911634,33.1587136 26.3786685,33.2134419 26.3224211,33.3776271 C26.0974314,34.253281 25.8724417,35.1836633 25.647452,36.0593172 C25.5912045,36.2782307 25.5912045,36.3329591 25.3099674,36.2235023 C24.8037406,36.1140456 24.2412663,35.9498605 23.7350395,35.8404037 C23.5662972,35.7856753 23.5662972,35.730947 23.6225446,35.6214902 C23.8475343,34.6911079 24.072524,33.7607256 24.3537612,32.8850717 C24.3537612,32.775615 24.4100086,32.7208866 24.2975137,32.6661582 C23.8475343,32.5567015 23.3975549,32.4472448 22.8913281,32.337788 C22.7788332,32.8303434 22.6100909,33.3228987 22.4975961,33.815454 C22.3851012,34.3080094 22.2163589,34.8005647 22.1038641,35.29312 C22.0476166,35.4025768 22.0476166,35.4573051 21.8788744,35.4025768 C21.3164001,35.2383916 20.7539258,35.1289349 20.1914516,35.0194782 C20.0227093,34.9647498 20.0227093,34.9100214 20.0789567,34.8005647 C20.3039464,33.8701824 20.5289361,32.9398001 20.8101733,32.0641462 C20.8101733,32.0094178 20.8664207,31.9546894 20.8664207,31.8452327 C19.5727299,31.5168625 18.279039,31.1884922 16.9291008,30.860122 C17.0415956,30.6412085 17.0978431,30.4770234 17.2103379,30.25811 C17.4353276,29.7655546 17.6603173,29.2729993 17.8290596,28.8351723 C17.8853071,28.6709872 17.9415545,28.6709872 18.1102968,28.6709872 C18.5040287,28.780444 18.9540082,28.8899007 19.3477402,28.9446291 C19.7977196,29.0540858 20.1352041,28.8351723 20.1914516,28.4520737 C20.9226681,25.6609269 21.6538847,22.86978 22.3288538,20.0239047 C22.4413486,19.5860778 22.1601115,19.0935224 21.6538847,18.9293373 C21.1476578,18.7651522 20.641431,18.6556955 20.1914516,18.5462387 C20.0789567,18.5462387 20.0227093,18.4915104 20.0789567,18.3820536 C20.1914516,17.9807122 20.3039464,17.5550471 20.4164413,17.1374899 L20.5461008,16.6620878 L21.035163,16.780742 L21.6538847,16.9185765 L21.6538847,16.9185765 L22.2726064,17.0685727 C22.8913281,17.2327578 23.5100497,17.3422146 24.1287714,17.5063997 C24.2975137,17.5611281 24.3537612,17.5063997 24.4100086,17.3422146 C24.6349983,16.4118323 24.859988,15.5361784 25.0849777,14.6057961 C25.1412251,14.441611 25.1974726,14.3868826 25.3662148,14.441611 Z M24.2975137,26.2082106 C24.1850189,26.7554943 24.0162766,27.2480496 23.9037817,27.7953333 C23.678792,28.5615305 23.5100497,29.3277277 23.28506,30.1486532 C23.3413075,30.1486532 23.3975549,30.2033816 23.3975549,30.2033816 C24.2975137,30.4222951 25.25372,30.6959369 26.2099262,30.7506653 C26.8848954,30.8053937 27.5036171,30.8053937 28.1223388,30.5864802 C29.1910399,30.25811 29.6410193,28.8899007 29.0222976,28.0142468 C28.7410605,27.5764198 28.291081,27.302778 27.8411016,27.0291361 C26.8286479,26.4818524 25.647452,26.2629389 24.5225034,26.0440254 C24.3537612,25.9892971 24.3537612,26.0440254 24.2975137,26.2082106 Z M25.7036994,20.5164601 C25.4224623,21.6657558 25.1412251,22.7603232 24.8037406,23.909619 C24.7474931,24.0190758 24.8037406,24.0738041 24.9162354,24.1285325 C25.1412251,24.1832609 25.3099674,24.2379892 25.5349571,24.2927176 C26.3786685,24.4021743 27.1098851,24.5663595 28.0098439,24.5663595 C28.1223388,24.5663595 28.4035759,24.5116311 28.6285656,24.4569027 C29.6972667,24.2379892 30.259741,23.0339651 29.6972667,22.1035828 C29.4160296,21.6110275 28.9098027,21.2826572 28.4035759,21.0637438 C27.6161119,20.7353735 26.8286479,20.5711884 25.9849365,20.3522749 C25.8161943,20.2975466 25.7599468,20.3522749 25.7036994,20.5164601 Z M20.4164413,16.6307458 L20.4291008,16.6330878 C20.3664436,16.6793932 20.378943,16.6672314 20.4164413,16.6307458 Z M20.5851835,16.521289 L20.5461008,16.6620878 L20.4291008,16.6330878 L20.4666704,16.6076232 C20.4814846,16.5968878 20.4986134,16.5844256 20.5182885,16.5700866 L20.5851835,16.521289 Z" id="Combined-Shape" fill="#FCAF03" transform="translate(25.429101, 25.349659) rotate(11.000000) translate(-25.429101, -25.349659) "></path>
    </g>
</svg>