<?xml version="1.0" encoding="UTF-8"?>
<svg width="22px" height="22px" viewBox="0 0 22 22" version="1.1" xmlns="http://www.w3.org/2000/svg" xmlns:xlink="http://www.w3.org/1999/xlink">
    <!-- Generator: sketchtool 58 (101010) - https://sketch.com -->
    <title>78F376DB-2AD6-4AF7-BE9E-E5BF89C04AB2</title>
    <desc>Created with sketchtool.</desc>
    <g id="會員專區" stroke="none" stroke-width="1" fill="none" fill-rule="evenodd">
        <g id="6.會員/好友名單" transform="translate(-957.000000, -265.000000)" fill="#374754" fill-rule="nonzero">
            <g id="content" transform="translate(120.000000, 152.000000)">
                <g id="card/board" transform="translate(0.000000, 92.000000)">
                    <g id="board" transform="translate(816.000000, 0.000000)">
                        <g id="icon/ban-icon/black_list" transform="translate(20.000000, 20.000000)">
                            <g id="noun_ban_45999" transform="translate(1.000000, 1.000000)">
                                <path d="M10.8329393,0 C4.86669798,0 0,4.86669798 0,10.8329393 C0,16.7991806 4.86669798,21.6658786 10.8329393,21.6658786 C16.7991806,21.6658786 21.6658786,16.7991806 21.6658786,10.8329393 C21.6658786,4.86669798 16.7991806,0 10.8329393,0 Z M10.8329393,2.70823482 C12.5783966,2.70823482 14.208754,3.26071473 15.5303726,4.18963927 L4.18963927,15.5303726 C3.26071473,14.208754 2.70823482,12.5783966 2.70823482,10.8329393 C2.70823482,6.32914478 6.32914478,2.70823482 10.8329393,2.70823482 Z M17.4762393,6.13550599 C18.4051639,7.45712458 18.9576438,9.08748195 18.9576438,10.8329393 C18.9576438,15.3367338 15.3367338,18.9576438 10.8329393,18.9576438 C9.08748195,18.9576438 7.45712458,18.4051639 6.13550599,17.4762393 L17.4762393,6.13550599 Z" id="Shape"></path>
                            </g>
                        </g>
                    </g>
                </g>
            </g>
        </g>
    </g>
</svg>