<?xml version="1.0" encoding="UTF-8"?>
<svg width="16px" height="16px" viewBox="0 0 16 16" version="1.1" xmlns="http://www.w3.org/2000/svg" xmlns:xlink="http://www.w3.org/1999/xlink">
    <!-- Generator: sketchtool 58 (101010) - https://sketch.com -->
    <title>404607A8-54DD-4512-A63D-3D2AB63BE1FC</title>
    <desc>Created with sketchtool.</desc>
    <g id="Guideline" stroke="none" stroke-width="1" fill="none" fill-rule="evenodd">
        <g id="styleguide03" transform="translate(-344.000000, -1172.000000)" fill="#9AABB8" fill-rule="nonzero">
            <g id="Group" transform="translate(120.000000, 996.000000)">
                <g id="icon/block_grey" transform="translate(220.000000, 172.000000)">
                    <g id="noun_ban_45999" transform="translate(4.000000, 4.000000)">
                        <path d="M7.8785013,0 C3.53941671,0 0,3.53941671 0,7.8785013 C0,12.2175859 3.53941671,15.7570026 7.8785013,15.7570026 C12.2175859,15.7570026 15.7570026,12.2175859 15.7570026,7.8785013 C15.7570026,3.53941671 12.2175859,0 7.8785013,0 Z M7.8785013,1.96962533 C9.14792482,1.96962533 10.3336393,2.37142889 11.2948164,3.04701038 L3.04701038,11.2948164 C2.37142889,10.3336393 1.96962533,9.14792482 1.96962533,7.8785013 C1.96962533,4.60301439 4.60301439,1.96962533 7.8785013,1.96962533 Z M12.7099922,4.46218618 C13.3855737,5.42336333 13.7873773,6.60907778 13.7873773,7.8785013 C13.7873773,11.1539882 11.1539882,13.7873773 7.8785013,13.7873773 C6.60907778,13.7873773 5.42336333,13.3855737 4.46218618,12.7099922 L12.7099922,4.46218618 Z" id="Shape"></path>
                    </g>
                </g>
            </g>
        </g>
    </g>
</svg>