<?xml version="1.0" encoding="UTF-8"?>
<svg width="24px" height="24px" viewBox="0 0 24 24" version="1.1" xmlns="http://www.w3.org/2000/svg" xmlns:xlink="http://www.w3.org/1999/xlink">
    <!-- Generator: Sketch 57.1 (83088) - https://sketch.com -->
    <title>icon/bullhorn</title>
    <desc>Created with Sketch.</desc>
    <g id="icon/bullhorn" stroke="none" stroke-width="1" fill="none" fill-rule="evenodd">
        <g id="bullhorn" transform="translate(2.000000, 2.000000)" fill="#374754" fill-rule="nonzero">
            <path d="M9.9811306,4.92662768 L9.9811306,12.5392593 C9.76779727,12.5192982 9.5557115,12.485614 9.3411306,12.4756335 L9.3411306,12.4756335 L7.68436647,12.4756335 L9.77777778,16.6637037 C10.0223002,17.1265497 9.93122807,17.7241326 9.54822612,18.1071345 L9.54822612,18.1071345 L8.04990253,19.5929825 C7.822846,19.8300195 7.50596491,19.9622612 7.1728655,19.9622612 C7.09052632,19.9622612 7.00693957,19.9535283 6.92335283,19.9360624 C6.50167641,19.8512281 6.15859649,19.5605458 6.0051462,19.160078 L6.0051462,19.160078 L3.49754386,12.4756335 L3.11953216,12.4756335 C2.77520468,12.4756335 2.49575049,12.1961793 2.49575049,11.8518519 L2.49575049,11.8518519 L2.49575049,11.2280702 L0.624405458,11.2280702 C0.280077973,11.2280702 0.000623781676,10.948616 0.000623781676,10.6042885 L0.000623781676,10.6042885 L0.000623781676,6.86159844 C0.000623781676,6.51727096 0.280077973,6.23781676 0.624405458,6.23781676 L0.624405458,6.23781676 L2.49575049,6.23781676 L2.49575049,5.61403509 C2.49575049,5.2697076 2.77520468,4.99025341 3.11953216,4.99025341 L3.11953216,4.99025341 L9.33489279,4.99025341 C9.55196881,4.9802729 9.76530214,4.94658869 9.9811306,4.92662768 L9.9811306,4.92662768 Z M19.3378558,0 C19.4002339,0 19.4563743,0.0187134503 19.5125146,0.0349317739 C19.5249903,0.0386744639 19.5362183,0.0324366472 19.548694,0.0361793372 C19.5524366,0.0374269006 19.5549318,0.042417154 19.5586745,0.0436647173 C19.6647173,0.084834308 19.7507992,0.155945419 19.8194152,0.243274854 C19.8356335,0.263235867 19.8468616,0.280701754 19.8593372,0.301910331 C19.9192203,0.39797271 19.9616374,0.504015595 19.9616374,0.623781676 L19.9616374,0.623781676 L19.9616374,16.8421053 C19.9616374,16.9618713 19.9192203,17.0679142 19.8593372,17.1639766 C19.845614,17.1851852 19.834386,17.2026511 19.8194152,17.2226121 C19.7507992,17.3111891 19.6647173,17.3810526 19.5586745,17.4222222 C19.5549318,17.4234698 19.5524366,17.42846 19.548694,17.4297076 C19.4788304,17.4534113 19.4089669,17.4658869 19.3378558,17.4658869 C19.2467836,17.4658869 19.1619493,17.4446784 19.0833528,17.4109942 C19.0646394,17.4022612 19.0496686,17.3860429 19.0309552,17.3748148 C18.9735673,17.3423782 18.919922,17.3037037 18.8762573,17.2550487 C18.8700195,17.2475634 18.8612865,17.2450682 18.8562963,17.2388304 C16.911345,14.877193 14.1991423,13.2990253 11.228694,12.7201559 L11.228694,12.7201559 L11.228694,4.74697856 C14.1991423,4.16810916 16.911345,2.58869396 18.8562963,0.22705653 L18.8562963,0.22705653 L18.8737622,0.21582846 C18.9473684,0.133489279 19.0396881,0.0736062378 19.1469786,0.0386744639 C19.1706823,0.0311890838 19.1931384,0.0299415205 19.2168421,0.0249512671 C19.2580117,0.0162183236 19.2954386,0 19.3378558,0 Z" id="Combined-Shape"></path>
        </g>
    </g>
</svg>