<?xml version="1.0" encoding="UTF-8"?>
<svg width="24px" height="24px" viewBox="0 0 24 24" version="1.1" xmlns="http://www.w3.org/2000/svg" xmlns:xlink="http://www.w3.org/1999/xlink">
    <!-- Generator: sketchtool 58 (101010) - https://sketch.com -->
    <title>D770AB60-23C5-4DD7-8E59-BD6CFF0D36E7</title>
    <desc>Created with sketchtool.</desc>
    <g id="會員專區" stroke="none" stroke-width="1" fill="none" fill-rule="evenodd">
        <g id="6.會員/個人設定" transform="translate(-428.000000, -316.000000)">
            <g id="content" transform="translate(120.000000, 152.000000)">
                <g id="privacy" transform="translate(0.000000, 92.000000)">
                    <g id="Group" transform="translate(219.000000, 72.000000)">
                        <g id="icon/camera" transform="translate(89.000000, 0.000000)">
                            <circle id="Oval" stroke="#9AABB8" fill="#FFFFFF" cx="12" cy="12" r="11.5"></circle>
                            <g id="photo-camera" transform="translate(5.000000, 6.000000)" fill="#374754" fill-rule="nonzero">
                                <path d="M8.75236134,0.0136134454 C9.00670588,0.0136134454 9.255,0.0988487395 9.49734454,0.269193277 C9.73978992,0.439613445 9.90645378,0.642378151 9.99766387,0.877462185 L9.99766387,0.877462185 L10.3646723,1.85626891 L11.9769328,1.85626891 C12.4855966,1.85626891 12.9197395,2.0362437 13.2796639,2.39609244 C13.6394118,2.75596639 13.8192858,3.19018487 13.8192858,3.69884874 L13.8192858,3.69884874 L13.8192858,10.147916 C13.8192858,10.656605 13.6393109,11.0908739 13.2794874,11.4506471 C12.9195378,11.8105714 12.4854202,11.9905462 11.9767563,11.9905462 L11.9767563,11.9905462 L1.84257983,11.9905462 C1.33389076,11.9905462 0.899697479,11.8105714 0.539773109,11.4506471 C0.17992437,11.0908739 -2.42472709e-13,10.656605 -2.42472709e-13,10.147916 L-2.42472709e-13,10.147916 L-2.42472709e-13,3.69884874 C-2.42472709e-13,3.19018487 0.17992437,2.75596639 0.539773109,2.39609244 C0.899697479,2.0362437 1.33386555,1.85626891 1.84257983,1.85626891 L1.84257983,1.85626891 L3.45484034,1.85626891 L3.82189916,0.877462185 C3.91308403,0.642378151 4.07977311,0.439613445 4.32211765,0.269193277 C4.56446218,0.0988487395 4.81280672,0.0136134454 5.06712605,0.0136134454 L5.06712605,0.0136134454 Z M6.90968067,3.699 C6.02193277,3.699 5.26260504,4.01445378 4.63164706,4.64548739 C4.00071429,5.27652101 3.68515966,6.03572269 3.68515966,6.92357143 C3.68515966,7.81114286 4.00061345,8.57059664 4.63164706,9.2015042 C5.26268067,9.83251261 6.02190756,10.1480924 6.90968067,10.1480924 C7.79745378,10.1480924 8.55673109,9.83251261 9.18771429,9.2015042 C9.8187479,8.57052101 10.1342269,7.81114286 10.1342269,6.92357143 C10.1342269,6.03572269 9.81872269,5.27644538 9.18771429,4.64548739 C8.55673109,4.01452941 7.79742857,3.699 6.90968067,3.699 Z M6.90968067,4.8504958 C7.48063866,4.8504958 7.96895798,5.0532605 8.37441176,5.45876471 C8.77989076,5.86426891 8.98265546,6.35243697 8.98265546,6.92357143 C8.98265546,7.49452941 8.77989076,7.9827479 8.37441176,8.38822689 C7.96893277,8.79363025 7.48063866,8.99636975 6.90968067,8.99636975 C6.33862185,8.99636975 5.85040336,8.79363025 5.44492437,8.38822689 C5.03944538,7.9827479 4.83670588,7.4945042 4.83670588,6.92357143 C4.83670588,6.35241176 5.03944538,5.8642437 5.44492437,5.45876471 C5.85040336,5.05323529 6.33864706,4.8504958 6.90968067,4.8504958 Z" id="Combined-Shape"></path>
                            </g>
                        </g>
                    </g>
                </g>
            </g>
        </g>
    </g>
</svg>