<?xml version="1.0" encoding="UTF-8"?>
<svg width="24px" height="24px" viewBox="0 0 24 24" version="1.1" xmlns="http://www.w3.org/2000/svg" xmlns:xlink="http://www.w3.org/1999/xlink">
    <!-- Generator: Sketch 57.1 (83088) - https://sketch.com -->
    <title>icon/chart</title>
    <desc>Created with Sketch.</desc>
    <g id="icon/chart" stroke="none" stroke-width="1" fill="none" fill-rule="evenodd">
        <g id="line-chart" transform="translate(0.000000, 2.000000)" fill="#374754" fill-rule="nonzero">
            <path d="M5.31677649,14.0094283 L5.31677649,21.30669 C5.31677649,21.5356787 5.16620624,21.7231275 4.97213793,21.7619558 L4.89753246,21.7693406 L1.99140911,21.7693406 C1.7839045,21.7693406 1.61404244,21.603181 1.5788571,21.3890198 L1.57216509,21.30669 L1.57216509,17.1586068 C2.11845276,17.1165476 2.63086212,16.887559 3.05251109,16.4937954 L3.20626396,16.3384535 L5.31677649,14.0094283 Z M6.76507403,13.9568543 L8.76124728,16.1597021 C9.18144413,16.6234042 9.7251274,16.9039912 10.3124168,16.9669696 L10.5096854,16.9798554 L10.5096854,21.30669 C10.5096854,21.5356787 10.3591152,21.7231275 10.1650469,21.7619558 L10.0904414,21.7693406 L7.18431805,21.7693406 C6.97681343,21.7693406 6.80695138,21.603181 6.77176604,21.3890198 L6.76507403,21.30669 L6.76507403,13.9568543 Z M15.7025944,12.4795268 L15.7025944,21.30669 C15.7025944,21.5356787 15.5520241,21.7231275 15.3579558,21.7619558 L15.2833503,21.7693406 L12.377227,21.7693406 C12.1697224,21.7693406 11.9998603,21.603181 11.964675,21.3890198 L11.957983,21.30669 L11.957983,16.5224622 C12.0564418,16.4523636 12.1506658,16.3752552 12.2406551,16.2895792 L12.3724628,16.1544447 L15.7025944,12.4795268 Z M20.6144192,7.05389704 L20.676353,7.12224315 C20.71129,7.15729244 20.7546966,7.20402483 20.8079843,7.25776707 L20.8955033,7.34305367 L20.8955033,21.30669 C20.8955033,21.5356787 20.7449331,21.7231275 20.5508647,21.7619558 L20.4762593,21.7693406 L17.5701359,21.7693406 C17.3626313,21.7693406 17.1927692,21.603181 17.1575839,21.3890198 L17.1508919,21.30669 L17.1508919,10.8760219 L20.6144192,7.05389704 Z M22.3771498,0.0352771084 C22.6439414,0.0352771084 22.8535635,0.1193954 22.9917234,0.282374589 C23.1394117,0.450611172 23.2013454,0.687193866 23.187053,0.992122673 L23.187053,0.992122673 L23.1251192,2.44842059 C23.082242,3.42103834 23.0393648,4.38839869 23.0012517,5.35575904 C22.9917234,5.58182694 22.9536103,5.87098357 22.7487524,6.09705148 C22.6915828,6.1601402 22.6248849,6.21271413 22.5486587,6.26003067 C22.4343194,6.32837678 22.3247443,6.35992114 22.2151691,6.35992114 C21.9531416,6.35992114 21.7816327,6.17065498 21.6577652,6.03396276 L21.6577652,6.03396276 L20.6144192,4.88785104 L11.3910507,15.0661643 C11.1671363,15.3080044 10.8765239,15.4446966 10.5620909,15.4446966 C10.2476579,15.4446966 9.95228144,15.3080044 9.73313115,15.0661643 L9.73313115,15.0661643 L6.0599818,11.0127141 L2.21532354,15.2554304 C1.99617325,15.4972705 1.70556092,15.6339628 1.3911279,15.6339628 C1.07669488,15.6339628 0.781318409,15.4972705 0.562168123,15.2554304 L0.562168123,15.2554304 L0.343017838,15.0135904 C-0.114339279,14.5088806 -0.114339279,13.6939847 0.343017838,13.1892749 L0.343017838,13.1892749 L5.23578617,7.79518949 C5.45493645,7.5533494 5.74554879,7.41665717 6.0599818,7.41665717 C6.37441482,7.41665717 6.66979129,7.5533494 6.88894158,7.79518949 L6.88894158,7.79518949 L10.5620909,11.8486396 L18.7373494,2.82169551 C18.4991426,2.56408324 18.2609357,2.30121358 18.027493,2.03834392 L18.027493,2.03834392 L17.6892393,1.65981161 C17.5558435,1.5126046 17.2747594,1.2024184 17.4748532,0.723995619 C17.5129663,0.629362541 17.5606076,0.550501643 17.6225414,0.482155531 C17.817871,0.26660241 18.0656061,0.256087623 18.2466433,0.245572837 L18.2466433,0.245572837 L22.3009236,0.0352771084 L22.3009236,0.0352771084 Z" id="Combined-Shape"></path>
        </g>
    </g>
</svg>