<?xml version="1.0" encoding="UTF-8"?>
<svg width="50px" height="50px" viewBox="0 0 50 50" version="1.1" xmlns="http://www.w3.org/2000/svg" xmlns:xlink="http://www.w3.org/1999/xlink">
    <!-- Generator: Sketch 57.1 (83088) - https://sketch.com -->
    <title>icon/crypto/DAI</title>
    <desc>Created with Sketch.</desc>
    <g id="icon/crypto/DAI" stroke="none" stroke-width="1" fill="none" fill-rule="evenodd">
        <g id="dai_detailed" transform="translate(14.000000, 14.000000)">
            <g id="Group" transform="translate(0.008296, 0.008296)">
                <polygon id="Rectangle" fill="#FFCC80" fill-rule="nonzero" transform="translate(10.945671, 10.949033) rotate(45.000000) translate(-10.945671, -10.949033) " points="3.2840267 3.2850116 18.6073144 3.2850116 18.6073144 18.6130542 3.2840267 18.6130542"></polygon>
                <polygon id="Rectangle-Copy" fill="#FFB74D" fill-rule="nonzero" transform="translate(10.945671, 10.949033) rotate(45.000000) translate(-10.945671, -10.949033) " points="3.2840267 3.2850116 18.6073144 3.2850116 13.6544707 13.6586736 3.2840267 18.6130542"></polygon>
                <g id="Combined-Shape" transform="translate(3.110860, 3.110860)">
                    <g id="path-1-link" fill="#000000" fill-rule="nonzero">
                        <polygon id="path-1" points="10.9310627 7.83769281 7.83529108 4.74192119 4.73855885 7.83865342 0.0941809465 7.8393739 7.83601154 0.0975433088 15.5754406 7.83697234"></polygon>
                    </g>
                    <g id="path-1-link" fill="#FCFCFC">
                        <polygon id="path-1" points="10.9310627 7.83769281 7.83529108 4.74192119 4.73855885 7.83865342 0.0941809465 7.8393739 7.83601154 0.0975433088 15.5754406 7.83697234"></polygon>
                    </g>
                </g>
                <polygon id="Rectangle-Copy-4" fill-opacity="0.0299999993" fill="#000000" fill-rule="nonzero" transform="translate(10.945671, 10.949033) rotate(45.000000) translate(-10.945671, -10.949033) " points="3.2840267 3.2850116 18.6073144 3.2850116 18.6073144 18.6130542"></polygon>
            </g>
        </g>
    </g>
</svg>