<?xml version="1.0" encoding="UTF-8"?>
<svg width="50px" height="50px" viewBox="0 0 50 50" version="1.1" xmlns="http://www.w3.org/2000/svg" xmlns:xlink="http://www.w3.org/1999/xlink">
    <!-- Generator: Sketch 57.1 (83088) - https://sketch.com -->
    <title>icon/crypto/ETC</title>
    <desc>Created with Sketch.</desc>
    <g id="icon/crypto/ETC" stroke="none" stroke-width="1" fill="none" fill-rule="evenodd">
        <g id="ethereum-classic-etc-logo" transform="translate(15.000000, 9.000000)" fill-rule="nonzero">
            <path d="M0,17.6415869 C3.52393981,19.5129959 7.20109439,21.4719562 10.0410397,22.9876881 L20,17.6415869 C16.3939808,22.998632 13.3898769,27.4582763 10.0410397,32.3939808 C6.68673051,27.4692202 2.98221614,22.0355677 0,17.6415869 Z M0.383036936,16.1641587 L10.0519836,11.004104 L19.5950752,16.125855 L10.0574555,21.2913817 L0.383036936,16.1641587 Z M10.0410397,9.35157319 L0,14.6374829 L9.99726402,0 L20,14.6703146 L10.0410397,9.35157319 L10.0410397,9.35157319 Z" id="path1599" fill="#3AB83A"></path>
            <path d="M10.0410397,22.9876881 L20,17.6415869 C16.3939808,22.998632 10.0410397,32.3939808 10.0410397,32.3939808 L10.0410397,22.9876881 Z M10.0519836,11.004104 L19.5950752,16.125855 L10.0574555,21.2913817 L10.0519836,11.004104 Z M10.0410397,9.35157319 L9.99726402,0 L20,14.6703146 L10.0410397,9.35157319 Z" id="path1593" fill="#0B8311"></path>
            <polygon id="path1603" fill="#0B8311" points="0.383036936 16.1641587 10.0519836 16.9575923 19.5950752 16.1313269 10.0574555 21.2968536"></polygon>
            <polygon id="path1606" fill="#146714" points="10.0519836 16.9575923 19.5950752 16.1313269 10.0574555 21.2968536 10.0519836 16.9575923"></polygon>
        </g>
    </g>
</svg>