<?xml version="1.0" encoding="UTF-8"?>
<svg width="24px" height="24px" viewBox="0 0 24 24" version="1.1" xmlns="http://www.w3.org/2000/svg" xmlns:xlink="http://www.w3.org/1999/xlink">
    <!-- Generator: Sketch 57.1 (83088) - https://sketch.com -->
    <title>icon/eye</title>
    <desc>Created with Sketch.</desc>
    <g id="icon/eye" stroke="none" stroke-width="1" fill="none" fill-rule="evenodd">
        <g id="visibility-button" transform="translate(0.000000, 4.000000)" fill="#374754" fill-rule="nonzero">
            <path d="M12,0.0104438642 C6.54545455,0.0104438642 1.85454545,3.31279373 0,8 C1.85454545,12.6872063 6.54545455,15.9895561 12,15.9895561 C17.4545455,15.9895561 22.1454545,12.6872063 24,8 C22.1454545,3.31279373 17.4545455,0.0104438642 12,0.0104438642 Z M12,13.3263708 C8.94545455,13.3263708 6.54545455,10.9827676 6.54545455,8 C6.54545455,5.01723238 8.94545455,2.67362924 12,2.67362924 C15.0545455,2.67362924 17.4545455,5.01723238 17.4545455,8 C17.4545455,10.9827676 15.0545455,13.3263708 12,13.3263708 Z M12,4.80417755 C10.1454545,4.80417755 8.72727273,6.18903394 8.72727273,8 C8.72727273,9.81096606 10.1454545,11.1958225 12,11.1958225 C13.8545455,11.1958225 15.2727273,9.81096606 15.2727273,8 C15.2727273,6.18903394 13.8545455,4.80417755 12,4.80417755 Z" id="Shape"></path>
        </g>
    </g>
</svg>