<?xml version="1.0" encoding="UTF-8"?>
<svg width="22px" height="24px" viewBox="0 0 22 24" version="1.1" xmlns="http://www.w3.org/2000/svg" xmlns:xlink="http://www.w3.org/1999/xlink">
    <!-- Generator: sketchtool 58 (101010) - https://sketch.com -->
    <title>017E7610-967B-42B3-A7A6-373B4FE69648</title>
    <desc>Created with sketchtool.</desc>
    <g id="會員專區" stroke="none" stroke-width="1" fill="none" fill-rule="evenodd">
        <g id="6.會員/好友名單" transform="translate(-549.000000, -264.000000)" fill="#374754" fill-rule="nonzero">
            <g id="content" transform="translate(120.000000, 152.000000)">
                <g id="card/board" transform="translate(0.000000, 92.000000)">
                    <g id="board" transform="translate(408.000000, 0.000000)">
                        <g id="icon/ban-icon/friends" transform="translate(20.000000, 20.000000)">
                            <g id="group" transform="translate(1.000000, 1.000000)">
                                <path d="M17.7098711,16.2019687 L17.7094844,16.2019687 L14.4381016,14.4177773 C14.126793,14.2476641 13.9332187,13.9216602 13.9332187,13.5667383 L13.9332187,11.8610078 C14.1785273,11.5394297 14.8817969,10.536625 15.2176406,9.20669922 C15.5637539,8.92877734 15.7665234,8.51296875 15.7665234,8.06673828 L15.7665234,6.60008594 C15.7665234,6.24696875 15.6349102,5.90489453 15.3998711,5.63758594 L15.3998711,3.68723437 C15.4207539,3.48592578 15.5014492,2.28512109 14.632793,1.29473437 C13.8800234,0.435617187 12.6575625,4.296875e-05 10.9998711,4.296875e-05 C9.34252344,4.296875e-05 8.1200625,0.435660156 7.36694922,1.29473437 C6.49867969,2.28512109 6.57933203,3.48592578 6.59987109,3.68723437 L6.59987109,5.63754297 C6.36521875,5.90485156 6.23321875,6.24692578 6.23321875,6.60004297 L6.23321875,8.06669531 C6.23321875,8.51292578 6.43598828,8.92873437 6.78210156,9.20665625 C7.11798828,10.5365391 7.82121484,11.5393867 8.06652344,11.8609648 L8.06652344,13.5666953 C8.06652344,13.9216172 7.87329297,14.2475781 7.56164062,14.4177344 L4.28987109,16.2019258 C3.22691016,16.7823477 2.56652344,17.8948086 2.56652344,19.1059258 L2.56652344,21.6333477 C2.56652344,21.8361172 2.73040625,22 2.93317578,22 L19.0665234,22 C19.269293,22 19.4331758,21.8361172 19.4331758,21.6333477 L19.4331758,19.1059258 C19.4331758,17.8948516 18.772832,16.7823906 17.7098711,16.2019687 Z" id="Path" stroke="#FFFFFF"></path>
                                <path d="M20.4953203,13.662 L18.0269375,12.1153828 C17.7739375,11.9771523 17.6166289,11.7127656 17.6166289,11.4242305 L17.6166289,10.4184609 C17.9062813,10.1159609 18.6506289,9.25430859 18.9527422,8.11396094 C19.2559727,7.86461328 19.4334336,7.49576953 19.4334336,7.10011328 L19.4334336,5.83365234 C19.4334336,5.53665234 19.3040117,5.23819141 19.0667813,4.97930469 L19.0660508,3.28019141 C19.0642031,3.24757813 18.8423984,0.00034375 15.0334336,0.00034375 C14.7698203,0.00034375 14.5193555,0.0227304688 14.2755508,0.0557304688 C14.6187422,0.266921875 14.9252813,0.515539063 15.1845117,0.811421875 C16.2038594,1.97411328 16.1638984,3.3605 16.1334336,3.72130859 L16.1334336,5.39184766 C16.3713945,5.74973438 16.5000859,6.16953906 16.5000859,6.60038672 L16.5000859,8.06703906 C16.5000859,8.64746094 16.273125,9.19492578 15.8701641,9.60411719 C15.5456641,10.7400391 14.9989727,11.6295781 14.6667813,12.1007734 L14.6667813,13.567082 C14.6667813,13.6536211 14.7133594,13.7328125 14.7892422,13.7738906 L18.060625,15.558082 C18.8984727,16.0153125 19.5269336,16.7446211 19.8708555,17.6004297 L21.6334336,17.6004297 C21.8358164,17.6004297 22.0000859,17.4361602 22.0000859,17.2337773 L22.0000859,16.2081992 C22.0000859,15.1477305 21.4237031,14.1731133 20.4953203,13.662 Z" id="Path"></path>
                                <path d="M3.93873047,15.5583398 L7.2105,13.7737617 C7.28638281,13.7326836 7.33334766,13.6534922 7.33334766,13.5669531 L7.33334766,12.1006445 C7.00115625,11.6294922 6.45407812,10.7399531 6.12996484,9.60398828 C5.72661719,9.19514063 5.50004297,8.647375 5.50004297,8.06691016 L5.50004297,6.60025781 C5.50004297,6.16979688 5.62839062,5.74994922 5.86669531,5.39171875 L5.86669531,3.72126563 C5.83627344,3.36045703 5.79592578,1.97411328 6.81561719,0.811378906 C7.07484766,0.515496094 7.38138672,0.266878906 7.72423437,0.0556875 C7.48038672,0.0226875 7.23035156,0.00030078125 6.96669531,0.00030078125 C3.15738672,0.00030078125 2.93592578,3.24749219 2.93334766,3.30030078 L2.93334766,4.97926172 C2.69538672,5.23814844 2.56669531,5.53660937 2.56669531,5.83360937 L2.56669531,7.10045703 C2.56669531,7.49572656 2.7438125,7.86457031 3.04704297,8.11391797 C3.34954297,9.25426562 4.09350391,10.115918 4.38315625,10.418418 L4.38315625,11.4245312 C4.38315625,11.7127227 4.22584766,11.9771094 3.9538125,12.1266836 L1.51507812,13.656457 C0.580421875,14.1661094 0,15.1440352 0,16.2080703 L0,17.2336484 C0,17.4360312 0.163882812,17.6003008 0.366652344,17.6003008 L2.12884375,17.6003008 C2.47280859,16.7444922 3.10161328,16.0155703 3.93873047,15.5583398 Z" id="Path"></path>
                            </g>
                        </g>
                    </g>
                </g>
            </g>
        </g>
    </g>
</svg>