<?xml version="1.0" encoding="UTF-8"?>
<svg width="50px" height="50px" viewBox="0 0 50 50" version="1.1" xmlns="http://www.w3.org/2000/svg" xmlns:xlink="http://www.w3.org/1999/xlink">
    <!-- Generator: Sketch 57.1 (83088) - https://sketch.com -->
    <title>icon/crypto/GRIN</title>
    <desc>Created with Sketch.</desc>
    <g id="icon/crypto/GRIN" stroke="none" stroke-width="1" fill="none" fill-rule="evenodd">
        <g id="grin-grin-logo" transform="translate(12.000000, 12.000000)" fill-rule="nonzero">
            <circle id="Oval" fill="#000000" cx="13.5" cy="13.5" r="13.5"></circle>
            <circle id="Oval" fill="#FEF102" cx="13.4717277" cy="13.5" r="12.0581152"></circle>
            <path d="M19.1827225,8.97643979 C18.9,8.32617801 18.6314136,7.0539267 17.8963351,6.77120419 C16.9492147,6.40366492 16.3554974,8.79267016 16.2141361,9.40052356 L16.0727749,9.40052356 C15.8324607,8.36858639 15.5073298,6.89842932 14.3764398,6.57329843 C13.8534031,8.77853403 14.9277487,11.1675393 15.9314136,13.0759162 C17.0057592,12.5670157 17.5287958,10.9554974 17.6277487,9.82460733 L17.7691099,9.82460733 L18.9,13.2172775 C19.804712,12.9628272 20.1298429,12.0581152 20.4549738,11.2382199 C21.1617801,9.48534031 21.7554974,7.32251309 21.3031414,5.44240838 C19.9460733,5.82408377 19.5361257,7.77486911 19.1827225,8.97643979 L19.1827225,8.97643979 Z M5.61204188,13.5 C6.82774869,12.9204188 7.40732984,11.0827225 7.59109948,9.82460733 L7.73246073,9.82460733 C7.87382199,10.4324607 8.25549738,12.0015707 9.01884817,12.1005236 C9.98010471,12.2277487 10.4890052,10.0790576 10.5596859,9.40052356 L10.7010471,9.40052356 C11.0120419,10.460733 11.3371728,11.8460733 12.3973822,12.3691099 C12.7931937,10.7151832 12.3267016,8.96230366 11.7188482,7.42146597 C11.5633508,7.02565445 11.252356,5.9513089 10.7010471,5.9513089 C9.8104712,5.9513089 9.30157068,8.31204188 9.1460733,8.97643979 L9.00471204,8.97643979 L7.87382199,5.58376963 C5.88062827,6.53089005 4.80628272,11.591623 5.61204188,13.5 L5.61204188,13.5 Z M3.49162304,15.1963351 C4.9617801,21.6424084 11.7753927,25.2895288 17.9104712,22.5612565 C20.1439791,21.5717277 21.9109948,19.804712 22.9287958,17.5994764 C23.1973822,17.0340314 23.7062827,15.9879581 23.4094241,15.2387435 C23.1125654,14.4895288 20.1863874,15.7193717 19.465445,16.0303665 C19.3664921,16.0727749 19.2958115,16.1717277 19.2675393,16.2848168 C19.2251309,16.5958115 19.4371728,16.8926702 19.7481675,16.9350785 C19.7623037,16.9350785 19.7764398,16.9350785 19.7905759,16.9350785 L21.0204188,17.0340314 C18.8010471,21.3314136 12.8073298,23.2256545 8.58062827,19.7905759 C7.63350785,19.0272251 6.78534031,18.1225131 6.21989529,17.0340314 C5.9513089,16.5109948 5.69685864,15.8465969 5.23036649,15.4790576 C4.77801047,15.1397906 4.09947644,15.0267016 3.49162304,15.1963351 L3.49162304,15.1963351 Z" id="Shape" fill="#000000"></path>
        </g>
    </g>
</svg>