<?xml version="1.0" encoding="UTF-8"?>
<svg width="50px" height="50px" viewBox="0 0 50 50" version="1.1" xmlns="http://www.w3.org/2000/svg" xmlns:xlink="http://www.w3.org/1999/xlink">
    <!-- Generator: Sketch 57.1 (83088) - https://sketch.com -->
    <title>icon/crypto/GUSD</title>
    <desc>Created with Sketch.</desc>
    <g id="icon/crypto/GUSD" stroke="none" stroke-width="1" fill="none" fill-rule="evenodd">
        <g id="gemini-dollar-gusd-logo" transform="translate(12.000000, 12.000000)" fill-rule="nonzero">
            <circle id="Oval" fill="#00DCFA" cx="13" cy="13" r="13"></circle>
            <path d="M15.744625,4.0625 C12.60025,4.0625 9.9295625,6.4805 9.594,9.5931875 C6.4796875,9.9295625 4.0625,12.60025 4.0625,15.7438125 C4.06429269,19.1634316 6.83575617,21.9352587 10.255375,21.9375 C13.39975,21.9375 16.081,19.5195 16.406,16.4068125 C19.5195,16.0704375 21.9375,13.39975 21.9375,10.2561875 C21.9357073,6.8365684 19.1642438,4.06474132 15.744625,4.0625 Z M20.486375,10.94925 C20.1690195,13.0339227 18.5329227,14.6700195 16.44825,14.987375 L16.44825,10.94925 L20.486375,10.94925 L20.486375,10.94925 Z M5.513625,15.05075 C5.82675702,12.9619725 7.46379758,11.3206499 9.55175,11.0020625 L9.55175,15.0401875 L5.513625,15.0401875 L5.513625,15.05075 Z M14.9979375,16.44825 C14.6511739,18.7997697 12.6323239,20.5412311 10.255375,20.5391893 C7.87887121,20.5412354 5.86038252,18.8001332 5.513625,16.4490625 L14.9979375,16.4490625 L14.9979375,16.44825 Z M15.05075,10.94925 L15.05075,15.0401875 L10.94925,15.0401875 L10.94925,10.94925 L15.05075,10.94925 Z M20.486375,9.55175 L11.0020625,9.55175 C11.3488261,7.20023026 13.3676761,5.45876894 15.744625,5.4608107 C18.1211288,5.45876461 20.1396175,7.19986675 20.486375,9.5509375 L20.486375,9.55175 Z" id="Shape" fill="#FFFFFF"></path>
        </g>
    </g>
</svg>