<?xml version="1.0" encoding="UTF-8"?>
<svg width="24px" height="24px" viewBox="0 0 24 24" version="1.1" xmlns="http://www.w3.org/2000/svg" xmlns:xlink="http://www.w3.org/1999/xlink">
    <!-- Generator: Sketch 57.1 (83088) - https://sketch.com -->
    <title>icon/heart-lined</title>
    <desc>Created with Sketch.</desc>
    <g id="icon/heart-lined" stroke="none" stroke-width="1" fill="none" fill-rule="evenodd">
        <g id="heart" transform="translate(4.000000, 5.000000)" fill-rule="nonzero" stroke="#9AABB8" stroke-width="1.6">
            <path d="M11.6955104,0 C10.831318,0 10.0390093,0.277018682 9.34063806,0.823378564 C8.67110119,1.34717797 8.22533428,2.01433235 7.96290071,2.49946116 C7.70046714,2.01430088 7.25470023,1.34717797 6.58516336,0.823378564 C5.88679209,0.277018682 5.09448347,0 4.230291,0 C1.81865187,0 0,1.99542183 0,4.64154179 C0,7.50027139 2.26889792,9.45617306 5.70370758,12.4171327 C6.28699006,12.9199764 6.94812855,13.4899351 7.635302,14.0978092 C7.72587999,14.1780452 7.842213,14.2222222 7.96290071,14.2222222 C8.08358842,14.2222222 8.19992143,14.1780452 8.29049942,14.0978407 C8.97773508,13.4898722 9.63884247,12.9199449 10.2224671,12.4168181 C13.6569035,9.45617306 15.9258014,7.50027139 15.9258014,4.64154179 C15.9258014,1.99542183 14.1071496,0 11.6955104,0 Z" id="Path"></path>
        </g>
    </g>
</svg>