<?xml version="1.0" encoding="UTF-8"?>
<svg width="24px" height="24px" viewBox="0 0 24 24" version="1.1" xmlns="http://www.w3.org/2000/svg" xmlns:xlink="http://www.w3.org/1999/xlink">
    <!-- Generator: Sketch 57.1 (83088) - https://sketch.com -->
    <title>icon/heart</title>
    <desc>Created with Sketch.</desc>
    <g id="icon/heart" stroke="none" stroke-width="1" fill="none" fill-rule="evenodd">
        <g id="heart" transform="translate(0.000000, 2.000000)" fill="#374754" fill-rule="nonzero">
            <path d="M17.3605233,0 C16.0777376,0 14.9016545,0.389557522 13.8650096,1.15787611 C12.8711658,1.89446903 12.2094806,2.83265487 11.8199307,3.51486726 C11.4303809,2.83261062 10.7686957,1.89446903 9.77485187,1.15787611 C8.738207,0.389557522 7.56212389,0 6.27933821,0 C2.69956137,0 0,2.80606195 0,6.52716814 C0,10.5472566 3.36789534,13.2977434 8.46644094,17.4615929 C9.33225087,18.1687168 10.3136283,18.9702212 11.3336514,19.8250442 C11.4681031,19.9378761 11.6407849,20 11.8199307,20 C11.9990766,20 12.1717584,19.9378761 12.3062101,19.8250885 C13.3263255,18.9701327 14.3076568,18.1686726 15.1739746,17.4611504 C20.2719661,13.2977434 23.6398615,10.5472566 23.6398615,6.52716814 C23.6398615,2.80606195 20.9403001,0 17.3605233,0 Z" id="Path"></path>
        </g>
    </g>
</svg>