<?xml version="1.0" encoding="UTF-8"?>
<svg width="24px" height="24px" viewBox="0 0 24 24" version="1.1" xmlns="http://www.w3.org/2000/svg" xmlns:xlink="http://www.w3.org/1999/xlink">
    <!-- Generator: Sketch 57.1 (83088) - https://sketch.com -->
    <title>icon/hot</title>
    <desc>Created with Sketch.</desc>
    <g id="icon/hot" stroke="none" stroke-width="1" fill="none" fill-rule="evenodd">
        <g id="hot" transform="translate(3.000000, 0.000000)" fill="#374754" fill-rule="nonzero">
            <path d="M17.9487188,14.0516719 C17.6737969,10.4723437 16.0072969,8.22932812 14.5371094,6.24998437 C13.1757656,4.41754687 12,2.83514062 12,0.500859375 C12,0.313359375 11.895,0.141984375 11.7285,0.0560625 C11.5614844,-0.030375 11.3608125,-0.01621875 11.2089844,0.094125 C9.00098438,1.67409375 7.15870312,4.33701562 6.51515625,6.87782812 C6.06839063,8.64675 6.00928125,10.635375 6.00098438,11.9487656 C3.96192188,11.51325 3.50001563,8.4631875 3.49514063,8.42995312 C3.47217188,8.27175 3.37551563,8.13407812 3.23489063,8.05889062 C3.0928125,7.9846875 2.92579688,7.97929687 2.78175,8.05059375 C2.67482813,8.10234375 0.15721875,9.3815625 0.010734375,14.4891094 C0.00046875,14.6590312 0,14.8294688 0,14.9998594 C0,19.9619063 4.03757812,23.99925 9,23.99925 C9.00684375,23.9997187 9.01415625,24.0007031 9.02001563,23.99925 C9.02198438,23.99925 9.02390625,23.99925 9.02634375,23.99925 C13.9765781,23.9850469 18,19.9531406 18,14.9998594 C18,14.7503437 17.9487188,14.0516719 17.9487188,14.0516719 Z M9,22.9993125 C7.3456875,22.9993125 5.99998532,21.5658281 5.99998532,19.80375 C5.99998532,19.7437031 5.99953125,19.6831406 6.00389063,19.6089375 C6.02390625,18.8658281 6.16504687,18.3585469 6.31982813,18.0211406 C6.60989063,18.6441563 7.12842188,19.216875 7.97071875,19.216875 C8.24709375,19.216875 8.47073438,18.9932344 8.47073438,18.7169063 C8.47073438,18.0050625 8.48540625,17.1838125 8.66264062,16.442625 C8.820375,15.7854375 9.19729688,15.08625 9.67485938,14.5257656 C9.88725,15.2532656 10.3013438,15.8420625 10.7056406,16.41675 C11.2842656,17.2389375 11.8823906,18.0890156 11.9873906,19.538625 C11.9937187,19.6245469 12.0000938,19.7109844 12.0000938,19.80375 C12,21.5657813 10.6543125,22.9993125 9,22.9993125 Z" id="Shape"></path>
        </g>
    </g>
</svg>