<?xml version="1.0" encoding="UTF-8"?>
<svg width="24px" height="24px" viewBox="0 0 24 24" version="1.1" xmlns="http://www.w3.org/2000/svg" xmlns:xlink="http://www.w3.org/1999/xlink">
    <!-- Generator: Sketch 57.1 (83088) - https://sketch.com -->
    <title>icon/import</title>
    <desc>Created with Sketch.</desc>
    <g id="icon/import" stroke="none" stroke-width="1" fill="none" fill-rule="evenodd">
        <path d="M8.79991667,10.3112083 L11.111125,12.5776667 L11.111125,4 L12.888875,4 L12.888875,12.6224167 L15.2000833,10.3112083 L16.4444583,11.5555 L12,16 L7.55558333,11.5555 L8.79991667,10.3112083 Z M20,18.22225 C20,19.2000833 19.2000833,20 18.22225,20 L5.77775,20 C4.79991667,20 4,19.2000833 4,18.22225 L4,5.77775 C4,4.79991667 4.79991667,4 5.77775,4 L9.33333333,4 L9.33333333,5.77775 L5.77770833,5.77775 L5.77770833,18.22225 L18.2222083,18.22225 L18.2222083,5.77775 L14.6666667,5.77775 L14.6666667,4 L18.22225,4 C19.2000833,4 20,4.79991667 20,5.77775 L20,18.22225 Z" id="Shape" fill="#374754" fill-rule="nonzero"></path>
    </g>
</svg>