<?xml version="1.0" encoding="UTF-8"?>
<svg width="50px" height="50px" viewBox="0 0 50 50" version="1.1" xmlns="http://www.w3.org/2000/svg" xmlns:xlink="http://www.w3.org/1999/xlink">
    <!-- Generator: Sketch 57.1 (83088) - https://sketch.com -->
    <title>icon/crypto/IOTA</title>
    <desc>Created with Sketch.</desc>
    <g id="icon/crypto/IOTA" stroke="none" stroke-width="1" fill="none" fill-rule="evenodd">
        <path d="M30.2605227,13 C29.7102783,13 29.1751224,13.2854694 28.880102,13.7959184 C28.4407551,14.5573469 28.7011032,15.530838 29.4625318,15.970185 C29.7129807,16.1150421 29.9873322,16.1836735 30.2574138,16.1836735 C30.8076587,16.1836735 31.3428146,15.8982041 31.637835,15.3877551 C32.077182,14.6263265 31.8157971,13.6528355 31.0543685,13.2134885 C30.8039195,13.0686314 30.5306049,13 30.2605227,13 Z M21.1530612,15.3919005 C20.6402254,15.3919005 20.2244898,15.8076361 20.2244898,16.3204719 C20.2244898,16.8333078 20.6402254,17.2490434 21.1530612,17.2490434 C21.6658971,17.2490434 22.0816327,16.8333078 22.0816327,16.3204719 C22.0816327,15.8076361 21.6658971,15.3919005 21.1530612,15.3919005 L21.1530612,15.3919005 Z M18.3673469,15.6572066 C17.7812488,15.6572066 17.3061224,16.132333 17.3061224,16.7184311 C17.3061224,17.3045292 17.7812488,17.7796556 18.3673469,17.7796556 C18.953445,17.7796556 19.4285714,17.3045292 19.4285714,16.7184311 C19.4285714,16.132333 18.953445,15.6572066 18.3673469,15.6572066 Z M23.6734694,15.6572066 C23.2338958,15.6572066 22.877551,16.0135514 22.877551,16.453125 C22.877551,16.8926986 23.2338958,17.2490434 23.6734694,17.2490434 C24.113043,17.2490434 24.4693878,16.8926986 24.4693878,16.453125 C24.4693878,16.0135514 24.113043,15.6572066 23.6734694,15.6572066 L23.6734694,15.6572066 Z M25.7959184,16.1878189 C25.3563448,16.1878189 25,16.5441637 25,16.9837372 C25,17.4233108 25.3563448,17.7796556 25.7959184,17.7796556 C26.2354919,17.7796556 26.5918367,17.4233108 26.5918367,16.9837372 C26.5918367,16.5441637 26.2354919,16.1878189 25.7959184,16.1878189 Z M31.3984376,16.9868463 C30.6658151,16.9868463 30.071907,17.5807542 30.071907,18.3133767 C30.071907,19.0459993 30.665815,19.6399073 31.3984376,19.6399073 C32.1310603,19.6399073 32.7249682,19.0459993 32.7249682,18.3133767 C32.7249682,17.5807542 32.1310602,16.9868463 31.3984376,16.9868463 L31.3984376,16.9868463 Z M27.3877551,17.2490434 C27.0947061,17.2490434 26.8571429,17.4866066 26.8571429,17.7796556 C26.8571429,18.0727047 27.0947061,18.3102679 27.3877551,18.3102679 C27.6808042,18.3102679 27.9183673,18.0727047 27.9183673,17.7796556 C27.9183673,17.4866066 27.6808042,17.2490434 27.3877551,17.2490434 Z M34.685746,17.659439 C33.9531234,17.659439 33.3592154,18.253347 33.3592154,18.9859697 C33.3592154,19.7185923 33.9531234,20.3125003 34.685746,20.3125003 C35.0375638,20.3125003 35.3749721,20.1727412 35.6237448,19.9239684 C35.8725176,19.6751957 36.0122767,19.3377874 36.0122767,18.9859697 C36.0122767,18.253347 35.4183687,17.659439 34.685746,17.659439 L34.685746,17.659439 Z M21.5510204,18.0449617 C21.0381846,18.0449617 20.622449,18.4606973 20.622449,18.9735332 C20.622449,19.486369 21.0381846,19.9021046 21.5510204,19.9021046 C22.0638562,19.9021046 22.4795918,19.486369 22.4795918,18.9735332 C22.4795918,18.4606973 22.0638562,18.0449617 21.5510204,18.0449617 Z M18.8979592,18.3102679 C18.3118611,18.3102679 17.8367347,18.7853942 17.8367347,19.3714923 C17.8367347,19.9575904 18.3118611,20.4327168 18.8979592,20.4327168 C19.4840573,20.4327168 19.9591837,19.9575904 19.9591837,19.3714923 C19.9591837,18.7853942 19.4840573,18.3102679 18.8979592,18.3102679 Z M23.9387755,18.3102679 C23.4992019,18.3102679 23.1428571,18.6666126 23.1428571,19.1061862 C23.1428571,19.5457598 23.4992019,19.9021046 23.9387755,19.9021046 C24.3783491,19.9021046 24.7346939,19.5457598 24.7346939,19.1061862 C24.7346939,18.6666126 24.3783491,18.3102679 23.9387755,18.3102679 Z M28.4489796,18.3102679 C28.1559305,18.3102679 27.9183673,18.5478311 27.9183673,18.8408801 C27.9183673,19.1339292 28.1559305,19.3714923 28.4489796,19.3714923 C28.7420286,19.3714923 28.9795918,19.1339292 28.9795918,18.8408801 C28.9795918,18.5478311 28.7420286,18.3102679 28.4489796,18.3102679 Z M26.0612245,18.9072066 C25.658282,18.9072066 25.3316327,19.233856 25.3316327,19.6367985 C25.3316327,20.0397409 25.658282,20.3663903 26.0612245,20.3663903 C26.4641669,20.3663903 26.7908163,20.0397409 26.7908163,19.6367985 C26.7908163,19.233856 26.4641669,18.9072066 26.0612245,18.9072066 Z M15.9795918,19.3714923 C15.2469692,19.3714923 14.6530612,19.9654003 14.6530612,20.698023 C14.6530612,21.4306456 15.2469692,22.0245536 15.9795918,22.0245536 C16.7122145,22.0245536 17.3061224,21.4306456 17.3061224,20.698023 C17.3061224,19.9654003 16.7122145,19.3714923 15.9795918,19.3714923 L15.9795918,19.3714923 Z M27.7857143,20.1674107 C27.419403,20.1674107 27.122449,20.4643647 27.122449,20.830676 C27.122449,21.1969873 27.419403,21.4939413 27.7857143,21.4939413 C28.1520256,21.4939413 28.4489796,21.1969873 28.4489796,20.830676 C28.4489796,20.4643647 28.1520256,20.1674107 27.7857143,20.1674107 Z M31.0875318,20.4420439 C30.5014337,20.4420439 30.0263073,20.9171703 30.0263073,21.5032684 C30.0263073,22.0893665 30.5014337,22.5644929 31.0875318,22.5644929 C31.6736299,22.5644929 32.1487562,22.0893665 32.1487562,21.5032684 C32.1487562,20.9171703 31.6736299,20.4420439 31.0875318,20.4420439 Z M34.375877,21.1146363 C33.7897789,21.1146363 33.3146525,21.5897627 33.3146525,22.1758608 C33.3146525,22.7619589 33.7897789,23.2370853 34.375877,23.2370853 C34.9619751,23.2370853 35.4371015,22.7619589 35.4371015,22.1758608 C35.4371015,21.5897627 34.9619751,21.1146363 34.375877,21.1146363 Z M22.6122449,21.2286352 C22.0994091,21.2286352 21.6836735,21.6443708 21.6836735,22.1572066 C21.6836735,22.6700425 22.0994091,23.0857781 22.6122449,23.0857781 C22.8585174,23.0857781 23.0947031,22.9879467 23.2688441,22.8138058 C23.442985,22.6396649 23.5408163,22.4034791 23.5408163,22.1572066 C23.5408163,21.6443708 23.1250807,21.2286352 22.6122449,21.2286352 L22.6122449,21.2286352 Z M19.9591837,21.4939413 C19.3730856,21.4939413 18.8979592,21.9690677 18.8979592,22.5551658 C18.8979592,23.1412639 19.3730856,23.6163903 19.9591837,23.6163903 C20.5452818,23.6163903 21.0204082,23.1412639 21.0204082,22.5551658 C21.0204082,21.9690677 20.5452818,21.4939413 19.9591837,21.4939413 Z M25,21.4939413 C24.5604264,21.4939413 24.2040816,21.8502861 24.2040816,22.2898597 C24.2040816,22.7294333 24.5604264,23.0857781 25,23.0857781 C25.4395736,23.0857781 25.7959184,22.7294333 25.7959184,22.2898597 C25.7959184,21.8502861 25.4395736,21.4939413 25,21.4939413 Z M36.9387755,21.9820632 C36.3526774,21.9820632 35.877551,22.4571896 35.877551,23.0432877 C35.877551,23.6293858 36.3526774,24.1045122 36.9387755,24.1045122 C37.5248736,24.1045122 38,23.6293858 38,23.0432877 C38,22.4571896 37.5248736,21.9820632 36.9387755,21.9820632 Z M27.122449,22.0245536 C26.6828754,22.0245536 26.3265306,22.3808984 26.3265306,22.8204719 C26.3265306,23.2600455 26.6828754,23.6163903 27.122449,23.6163903 C27.5620226,23.6163903 27.9183673,23.2600455 27.9183673,22.8204719 C27.9183673,22.3808984 27.5620226,22.0245536 27.122449,22.0245536 Z M17.0408163,22.5551658 C16.3081937,22.5551658 15.7142857,23.1490738 15.7142857,23.8816964 C15.7142857,24.6143191 16.3081937,25.208227 17.0408163,25.208227 C17.3926341,25.208227 17.7300424,25.068468 17.9788151,24.8196952 C18.2275879,24.5709225 18.3673469,24.2335142 18.3673469,23.8816964 C18.3673469,23.5298786 18.2275879,23.1924704 17.9788151,22.9436976 C17.7300424,22.6949249 17.3926341,22.5551658 17.0408163,22.5551658 Z M30.1061066,23.0723053 C29.5932707,23.0723053 29.1775351,23.4880409 29.1775351,24.0008767 C29.1775351,24.5137126 29.5932707,24.9294481 30.1061066,24.9294481 C30.6189424,24.9294481 31.034678,24.5137126 31.034678,24.0008767 C31.034678,23.4880409 30.6189424,23.0723053 30.1061066,23.0723053 Z M33.393415,23.7448982 C32.8805791,23.7448982 32.4648436,24.1606338 32.4648436,24.6734697 C32.4648436,24.9197421 32.5626749,25.1559279 32.7368158,25.3300688 C32.9109567,25.5042097 33.1471425,25.6020411 33.393415,25.6020411 C33.9062508,25.6020411 34.3219864,25.1863055 34.3219864,24.6734697 C34.3219864,24.1606338 33.9062508,23.7448982 33.393415,23.7448982 L33.393415,23.7448982 Z M23.2060748,24.578125 C22.7665012,24.578125 22.4101564,24.9344698 22.4101564,25.3740434 C22.4101564,25.8136169 22.7665012,26.1699617 23.2060748,26.1699617 C23.6456484,26.1699617 24.0019932,25.8136169 24.0019932,25.3740434 C24.0019932,24.9344698 23.6456484,24.578125 23.2060748,24.578125 Z M13.5918367,24.6776148 C12.7126122,24.6776148 12,25.390227 12,26.2694515 C12,27.148676 12.7126122,27.8612883 13.5918367,27.8612883 C14.4710612,27.8612883 15.1836735,27.148676 15.1836735,26.2694515 C15.1836735,25.390227 14.4710612,24.6776148 13.5918367,24.6776148 Z M35.8899875,24.7263234 C35.3771517,24.7263234 34.9614161,25.142059 34.9614161,25.6548948 C34.9614161,26.1677307 35.3771517,26.5834663 35.8899875,26.5834663 C36.4028233,26.5834663 36.8185589,26.1677307 36.8185589,25.6548948 C36.8185589,25.142059 36.4028233,24.7263234 35.8899875,24.7263234 Z M21.1520249,25.1315371 C20.7857136,25.1315371 20.4887596,25.4284911 20.4887596,25.7948024 C20.4887596,26.1611137 20.7857136,26.4580677 21.1520249,26.4580677 C21.5183363,26.4580677 21.8152902,26.1611137 21.8152902,25.7948024 C21.8152902,25.4284911 21.5183363,25.1315371 21.1520249,25.1315371 Z M28.7971939,25.2061545 C28.3576203,25.2061545 28.0012755,25.5624993 28.0012755,26.0020728 C28.0012755,26.4416464 28.3576203,26.7979912 28.7971939,26.7979912 C29.2367675,26.7979912 29.5931122,26.4416464 29.5931122,26.0020728 C29.5931122,25.5624993 29.2367675,25.2061545 28.7971939,25.2061545 L28.7971939,25.2061545 Z M19.0969388,25.6849492 C18.8038897,25.6849492 18.5663265,25.9225124 18.5663265,26.2155615 C18.5663265,26.5086105 18.8038897,26.7461737 19.0969388,26.7461737 C19.3899878,26.7461737 19.627551,26.5086105 19.627551,26.2155615 C19.627551,25.9225124 19.3899878,25.6849492 19.0969388,25.6849492 Z M32.0855391,25.8787469 C31.6459655,25.8787469 31.2896207,26.2350917 31.2896207,26.6746652 C31.2896207,27.1142388 31.6459655,27.4705836 32.0855391,27.4705836 C32.5251127,27.4705836 32.8814575,27.1142388 32.8814575,26.6746652 C32.8814575,26.2350917 32.5251127,25.8787469 32.0855391,25.8787469 Z M23.808195,26.6819198 C23.3686214,26.6819198 23.0122767,27.0382646 23.0122767,27.4778381 C23.0122767,27.9174117 23.3686214,28.2737565 23.808195,28.2737565 C24.2477686,28.2737565 24.6041134,27.9174117 24.6041134,27.4778381 C24.6041134,27.0382646 24.2477686,26.6819198 23.808195,26.6819198 L23.808195,26.6819198 Z M27.2758288,26.779337 C26.8362552,26.779337 26.4799104,27.1356818 26.4799104,27.5752554 C26.4799104,28.0148289 26.8362552,28.3711737 27.2758288,28.3711737 C27.7154024,28.3711737 28.0717472,28.0148289 28.0717472,27.5752554 C28.0717472,27.1356818 27.7154024,26.779337 27.2758288,26.779337 Z M34.5157846,26.9752072 C34.076211,26.9752072 33.7198662,27.331552 33.7198662,27.7711256 C33.7198662,28.2106991 34.076211,28.5670439 34.5157846,28.5670439 C34.9553581,28.5670439 35.3117029,28.2106991 35.3117029,27.7711256 C35.3117029,27.331552 34.9553581,26.9752072 34.5157846,26.9752072 Z M18.7083067,27.1348053 C18.4152576,27.1348053 18.1776944,27.3723685 18.1776944,27.6654175 C18.1776944,27.9584666 18.4152576,28.1960298 18.7083067,28.1960298 C19.0013557,28.1960298 19.2389189,27.9584666 19.2389189,27.6654175 C19.2389189,27.3723685 19.0013557,27.1348053 18.7083067,27.1348053 Z M20.9799904,27.1555326 C20.5770479,27.1555326 20.2503985,27.482182 20.2503985,27.8851244 C20.2503985,28.2880669 20.5770479,28.6147163 20.9799904,28.6147163 C21.3829328,28.6147163 21.7095822,28.2880669 21.7095822,27.8851244 C21.7095822,27.482182 21.3829328,27.1555326 20.9799904,27.1555326 Z M30.564174,27.5182559 C30.1612316,27.5182559 29.8345822,27.8449053 29.8345822,28.2478478 C29.8345822,28.6507902 30.1612316,28.9774396 30.564174,28.9774396 C30.9671165,28.9774396 31.2937659,28.6507902 31.2937659,28.2478478 C31.2937659,27.8449053 30.9671165,27.5182559 30.564174,27.5182559 Z M28.6676497,28.4810269 C28.3013384,28.4810269 28.0043844,28.7779809 28.0043844,29.1442922 C28.0043844,29.5106035 28.3013384,29.8075575 28.6676497,29.8075575 C29.033961,29.8075575 29.330915,29.5106035 29.330915,29.1442922 C29.330915,28.9683833 29.2610354,28.7996792 29.1366491,28.6752928 C29.0122627,28.5509065 28.8435586,28.4810269 28.6676497,28.4810269 L28.6676497,28.4810269 Z M32.9944195,28.5483897 C32.5548459,28.5483897 32.1985011,28.9047345 32.1985011,29.3443081 C32.1985011,29.7838817 32.5548459,30.1402265 32.9944195,30.1402265 C33.4339931,30.1402265 33.7903379,29.7838817 33.7903379,29.3443081 C33.7903379,28.9047345 33.4339931,28.5483897 32.9944195,28.5483897 Z M18.815051,28.645807 C18.3754774,28.645807 18.0191327,29.0021518 18.0191327,29.4417253 C18.0191327,29.8812989 18.3754774,30.2376437 18.815051,30.2376437 C19.2546246,30.2376437 19.6109694,29.8812989 19.6109694,29.4417253 C19.6109694,29.0021518 19.2546246,28.645807 18.815051,28.645807 Z M24.8870374,28.6831154 C24.3742016,28.6831154 23.958466,29.098851 23.958466,29.6116868 C23.958466,30.1245226 24.3742016,30.5402582 24.8870374,30.5402582 C25.1333099,30.5402582 25.3694957,30.4424269 25.5436366,30.2682859 C25.7177775,30.094145 25.8156089,29.8579593 25.8156089,29.6116868 C25.8156089,29.098851 25.3998733,28.6831154 24.8870374,28.6831154 L24.8870374,28.6831154 Z M21.5821111,29.1930008 C21.1425375,29.1930008 20.7861927,29.5493456 20.7861927,29.9889192 C20.7861927,30.4284928 21.1425375,30.7848376 21.5821111,30.7848376 C22.0216847,30.7848376 22.3780295,30.4284928 22.3780295,29.9889192 C22.3780295,29.5493456 22.0216847,29.1930008 21.5821111,29.1930008 Z M31.5093271,29.7940848 C31.2162781,29.7940848 30.9787149,30.0316479 30.9787149,30.324697 C30.9787149,30.6177461 31.2162781,30.8553092 31.5093271,30.8553092 C31.8023762,30.8553092 32.0399393,30.6177461 32.0399393,30.324697 C32.0399393,30.0316479 31.8023762,29.7940848 31.5093271,29.7940848 Z M30.0594705,30.1827168 C29.7664215,30.1827168 29.5288583,30.42028 29.5288583,30.7133291 C29.5288583,31.0063781 29.7664215,31.2439413 30.0594705,31.2439413 C30.3525196,31.2439413 30.5900828,31.0063781 30.5900828,30.7133291 C30.5900828,30.42028 30.3525196,30.1827168 30.0594705,30.1827168 Z M26.5586735,30.6490751 C25.9725754,30.6490751 25.497449,31.1242015 25.497449,31.7102996 C25.497449,32.2963977 25.9725754,32.7715241 26.5586735,32.7715241 C27.1447716,32.7715241 27.619898,32.2963977 27.619898,31.7102996 C27.619898,31.1242015 27.1447716,30.6490751 26.5586735,30.6490751 Z M19.4171718,30.7485649 C18.9775982,30.7485649 18.6212534,31.1049097 18.6212534,31.5444833 C18.6212534,31.9840569 18.9775982,32.3404017 19.4171718,32.3404017 C19.8567453,32.3404017 20.2130901,31.9840569 20.2130901,31.5444833 C20.2130901,31.1049097 19.8567453,30.7485649 19.4171718,30.7485649 Z M22.6609535,31.1941964 C22.1481177,31.1941964 21.7323821,31.609932 21.7323821,32.1227679 C21.7323821,32.6356037 22.1481177,33.0513393 22.6609535,33.0513393 C23.1737893,33.0513393 23.5895249,32.6356037 23.5895249,32.1227679 C23.5895249,31.609932 23.1737893,31.1941964 22.6609535,31.1941964 Z M29.1661349,32.2481664 C28.4335123,32.2481664 27.8396043,32.8420744 27.8396043,33.574697 C27.8396043,34.3073196 28.4335123,34.9012276 29.1661349,34.9012276 C29.8987576,34.9012276 30.4926656,34.3073196 30.4926656,33.574697 C30.4926656,32.8420744 29.8987576,32.2481664 29.1661349,32.2481664 Z M20.5623407,32.8658325 C20.0495049,32.8658325 19.6337693,33.2815681 19.6337693,33.7944039 C19.6337693,34.0406764 19.7316006,34.2768621 19.9057415,34.4510031 C20.0798825,34.625144 20.3160682,34.7229753 20.5623407,34.7229753 C21.0751765,34.7229753 21.4909121,34.3072397 21.4909121,33.7944039 C21.4909121,33.2815681 21.0751765,32.8658325 20.5623407,32.8658325 Z M24.3315527,33.1601562 C23.7454546,33.1601562 23.2703282,33.6352826 23.2703282,34.2213807 C23.2703282,34.8074788 23.7454546,35.2826052 24.3315527,35.2826052 C24.9176508,35.2826052 25.3927772,34.8074788 25.3927772,34.2213807 C25.3927772,33.6352826 24.9176508,33.1601562 24.3315527,33.1601562 Z M32.691805,33.3156091 C32.4217233,33.3156091 32.1484082,33.3847712 31.8979592,33.5290978 C31.1365306,33.9684447 30.8756519,34.9419357 31.3155295,35.7033642 C31.6105499,36.2138132 32.1457052,36.4992826 32.6959501,36.4992826 C32.9660318,36.4992826 33.2393469,36.4311568 33.4897959,36.2868302 C34.2512245,35.8474833 34.5121032,34.8729561 34.0722256,34.1115275 C33.7772052,33.6010785 33.2420499,33.3156091 32.691805,33.3156091 Z M26.940051,34.7592474 C26.2074284,34.7592474 25.6135204,35.3531554 25.6135204,36.0857781 C25.6135204,36.4375959 25.7532795,36.7750041 26.0020522,37.0237769 C26.250825,37.2725496 26.5882332,37.4123087 26.940051,37.4123087 C27.2918688,37.4123087 27.6292771,37.2725496 27.8780498,37.0237769 C28.1268226,36.7750041 28.2665816,36.4375959 28.2665816,36.0857781 C28.2665816,35.7339603 28.1268226,35.396552 27.8780498,35.1477793 C27.6292771,34.8990065 27.2918688,34.7592474 26.940051,34.7592474 L26.940051,34.7592474 Z M22.2992664,34.9457906 C21.7131683,34.9457906 21.238042,35.4209169 21.238042,36.007015 C21.238042,36.5931131 21.7131683,37.0682395 22.2992664,37.0682395 C22.8853646,37.0682395 23.3604909,36.5931131 23.3604909,36.007015 C23.3604909,35.4209169 22.8853646,34.9457906 22.2992664,34.9457906 Z" id="Shape" fill="#000000" fill-rule="nonzero"></path>
    </g>
</svg>