<?xml version="1.0" encoding="UTF-8"?>
<svg width="24px" height="24px" viewBox="0 0 24 24" version="1.1" xmlns="http://www.w3.org/2000/svg" xmlns:xlink="http://www.w3.org/1999/xlink">
    <!-- Generator: Sketch 57.1 (83088) - https://sketch.com -->
    <title>icon/like</title>
    <desc>Created with Sketch.</desc>
    <g id="icon/like" stroke="none" stroke-width="1" fill="none" fill-rule="evenodd">
        <g id="like" transform="translate(4.000000, 4.000000)" fill="#9AABB8" fill-rule="nonzero">
            <path d="M2.61181377,5.10893778 C2.89903266,5.10893778 3.13418902,5.35281543 3.13418902,5.65347623 L3.13418902,5.65347623 L3.13418902,15.4555267 C3.13418902,15.7560246 2.90009516,16 2.61181377,16 L2.61181377,16 L0.522375253,16 C0.234093864,16 -2.14050999e-13,15.7560572 -2.14050999e-13,15.4555267 L-2.14050999e-13,15.4555267 L-2.14050999e-13,5.65347623 C-2.14050999e-13,5.35281543 0.235125114,5.10893778 0.522375253,5.10893778 L0.522375253,5.10893778 Z M9.09491066,0.0410000256 C9.4812546,-0.0603821856 9.96044233,0.0355595277 10.3034112,0.226595931 C11.3567555,0.813257518 11.6025369,2.46342241 11.2229117,3.54415939 L11.2229117,3.54415939 L10.6727239,5.10893778 C10.6727239,5.10893778 14.6116946,5.09408229 14.6958196,5.10893778 C16.0882266,5.35444432 16.486633,7.32370907 15.2949449,8.11935744 C15.6994451,8.86512916 15.4632575,9.8364372 14.7725697,10.2975764 C15.1770699,11.0433481 14.940851,12.0146562 14.2501944,12.4757954 C14.8296009,13.544055 14.0597256,14.9116724 12.884975,14.910956 L12.884975,14.910956 L4.17893953,14.910956 L4.17893953,6.19801468 C4.17893953,6.19801468 6.6982845,3.81918144 7.50928489,2.99460395 C7.97444137,2.52167157 8.27481651,1.89158374 8.39534782,1.22888549 C8.44287909,0.967611282 8.42909784,0.692556652 8.56256665,0.456921198 C8.67862921,0.252039217 8.87334805,0.0991188767 9.09491066,0.0410000256 Z" id="Combined-Shape"></path>
        </g>
    </g>
</svg>