<?xml version="1.0" encoding="UTF-8"?>
<svg width="16px" height="4px" viewBox="0 0 16 4" version="1.1" xmlns="http://www.w3.org/2000/svg" xmlns:xlink="http://www.w3.org/1999/xlink">
    <!-- Generator: sketchtool 58 (101010) - https://sketch.com -->
    <title>0752E8A5-2D78-47A8-A3C4-10595E381BA5</title>
    <desc>Created with sketchtool.</desc>
    <g id="看板" stroke="none" stroke-width="1" fill="none" fill-rule="evenodd">
        <g id="5.文章/顯示(自己的)--1" transform="translate(-988.000000, -222.000000)" fill="#374754" fill-rule="nonzero">
            <g id="content" transform="translate(120.000000, 152.000000)">
                <g id="article" transform="translate(0.000000, 48.000000)">
                    <g id="icon/more_onlight-Icon/more/onlight" transform="translate(864.000000, 12.000000)">
                        <path d="M6,10.5 C6.82842712,10.5 7.5,11.1715729 7.5,12 C7.5,12.8284271 6.82842712,13.5 6,13.5 C5.17157288,13.5 4.5,12.8284271 4.5,12 C4.5,11.1715729 5.17157288,10.5 6,10.5 Z M12,10.5 C12.8284271,10.5 13.5,11.1715729 13.5,12 C13.5,12.8284271 12.8284271,13.5 12,13.5 C11.1715729,13.5 10.5,12.8284271 10.5,12 C10.5,11.1715729 11.1715729,10.5 12,10.5 Z M18,10.5 C18.8284271,10.5 19.5,11.1715729 19.5,12 C19.5,12.8284271 18.8284271,13.5 18,13.5 C17.1715729,13.5 16.5,12.8284271 16.5,12 C16.5,11.1715729 17.1715729,10.5 18,10.5 Z" id="Combined-Shape"></path>
                    </g>
                </g>
            </g>
        </g>
    </g>
</svg>