<?xml version="1.0" encoding="UTF-8"?>
<svg width="24px" height="24px" viewBox="0 0 24 24" version="1.1" xmlns="http://www.w3.org/2000/svg" xmlns:xlink="http://www.w3.org/1999/xlink">
    <!-- Generator: Sketch 57.1 (83088) - https://sketch.com -->
    <title>icon/reload</title>
    <desc>Created with Sketch.</desc>
    <g id="icon/reload" stroke="none" stroke-width="1" fill="none" fill-rule="evenodd">
        <g id="refresh-page-arrow-button" transform="translate(4.000000, 4.000000)" fill="#1DA3FB">
            <path d="M5.441,9 L2.97,11.271 C4.04,12.914 5.894,14 8,14 C10.973,14 13.441,11.838 13.917,9 L13.917,9 L15.938,9 C15.446,12.946 12.08,16 8,16 C5.311,16 2.932,14.673 1.481,12.639 L1.481,12.639 L5.15143483e-14,14 L5.15143483e-14,9 L5.441,9 Z M8,0 C10.72,0 13.123,1.357 14.568,3.432 L14.568,3.432 L16,2 L16,7 L11,7 L13.124,4.876 C12.07,3.151 10.169,2 8,2 C5.027,2 2.559,4.162 2.083,7 L2.083,7 L0.062,7 C0.554,3.054 3.92,0 8,0 Z" id="Combined-Shape"></path>
        </g>
    </g>
</svg>