<?xml version="1.0" encoding="UTF-8"?>
<svg width="16px" height="14px" viewBox="0 0 16 14" version="1.1" xmlns="http://www.w3.org/2000/svg" xmlns:xlink="http://www.w3.org/1999/xlink">
    <!-- Generator: sketchtool 58 (101010) - https://sketch.com -->
    <title>D06753E8-6F03-48B6-B8DA-B6EF741FD784</title>
    <desc>Created with sketchtool.</desc>
    <g id="看板" stroke="none" stroke-width="1" fill="none" fill-rule="evenodd">
        <g id="m/5.文章/顯示(自己的)" transform="translate(-255.000000, -218.000000)" fill="#374754" fill-rule="nonzero">
            <g id="icon/reply_onlight-Icon/reply/onlight" transform="translate(251.000000, 213.000000)">
                <g id="reply" transform="translate(4.000000, 5.000000)">
                    <path d="M14.8103693,6.17000284 C13.8903963,3.88189773 11.4064602,2.73781534 7.35826278,2.73781534 L5.45057386,2.73781534 L5.45057386,0.557603693 C5.45057386,0.409887784 5.39661222,0.282127841 5.28877841,0.174294034 C5.18088494,0.0664005682 5.05324432,0.0124389205 4.90555824,0.0124389205 C4.75784233,0.0124389205 4.63008239,0.0664005682 4.52224858,0.174294034 L0.161795455,4.53471733 C0.0539616477,4.64270028 0,4.77040057 0,4.91802699 C0,5.06562358 0.0539616477,5.19332386 0.161795455,5.30124716 L4.52227841,9.66178977 C4.63023153,9.76956392 4.75799148,9.82370455 4.90558807,9.82370455 C5.05315483,9.82370455 5.18088494,9.76959375 5.28880824,9.66178977 C5.39667188,9.5539858 5.45060369,9.42619602 5.45060369,9.27853977 L5.45060369,7.09817898 L7.35829261,7.09817898 C7.91458381,7.09817898 8.41273722,7.11512216 8.85272301,7.14912784 C9.29267898,7.18322301 9.73009943,7.24425426 10.1642685,7.33237074 C10.598706,7.4203679 10.976348,7.54090909 11.2971648,7.69435227 C11.6179219,7.84779545 11.9174403,8.04502841 12.1956903,8.28623011 C12.4739702,8.52767045 12.7010923,8.81421307 12.877206,9.14648437 C13.053081,9.47866619 13.190804,9.87167045 13.2902259,10.3259148 C13.3894389,10.7801889 13.4392841,11.2940625 13.4392841,11.8673565 C13.4392841,12.1795526 13.4249957,12.5288565 13.3966875,12.9149105 C13.3966875,12.9488267 13.3896477,13.0155852 13.3753594,13.1150071 C13.36125,13.214429 13.3541207,13.2895696 13.3541207,13.3405781 C13.3541207,13.4256222 13.378223,13.4966463 13.4263977,13.5534418 C13.4747813,13.6101776 13.5415398,13.6384858 13.6266733,13.6384858 C13.7175341,13.6384858 13.7969403,13.5903111 13.8651307,13.493723 C13.9047443,13.4426847 13.9415241,13.3801918 13.9757983,13.306304 C14.0098935,13.2325952 14.0482841,13.1474616 14.0907614,13.0509034 C14.1334474,12.9543452 14.1632472,12.8864531 14.1801903,12.8466307 C14.9011705,11.2287358 15.26175,9.9484517 15.26175,9.00589773 C15.26175,7.87616335 15.1113196,6.93071591 14.8103693,6.17000284 Z" id="Path"></path>
                </g>
            </g>
        </g>
    </g>
</svg>