<?xml version="1.0" encoding="UTF-8"?>
<svg width="24px" height="24px" viewBox="0 0 24 24" version="1.1" xmlns="http://www.w3.org/2000/svg" xmlns:xlink="http://www.w3.org/1999/xlink">
    <!-- Generator: Sketch 57.1 (83088) - https://sketch.com -->
    <title>icon/save</title>
    <desc>Created with Sketch.</desc>
    <g id="icon/save" stroke="none" stroke-width="1" fill="none" fill-rule="evenodd">
        <g id="noun_Save_716011" transform="translate(4.000000, 4.000000)" fill="#374754" fill-rule="nonzero">
            <path d="M1.9193476,1.77635684e-14 L1.9193476,5.44880734 C1.9193476,5.7406569 2.13227933,5.98277358 2.41126382,6.02827842 L2.50650357,6.0359633 L11.9773293,6.0359633 C12.2691788,6.0359633 12.5112955,5.82303157 12.5568003,5.54404709 L12.5644852,5.44880734 L12.5644852,1.77635684e-14 L13.3473598,1.77635684e-14 C13.5650609,0.0004744338 13.7750727,0.0734704531 13.9451586,0.205457725 L14.0421611,0.291620795 L15.4258919,1.67535168 C15.5787383,1.82858428 15.6755998,2.02721227 15.7033737,2.239464 L15.7116427,2.36819572 L15.7116427,14.5869113 C15.7116427,15.088769 15.3338651,15.5023923 14.8471726,15.5589209 L14.7330479,15.5655046 L1.13647299,15.559633 C0.634615285,15.559633 0.220991973,15.1818567 0.164463427,14.6951644 L0.157879715,14.5810398 L0.157879715,0.978593272 C0.157879715,0.47673557 0.535656047,0.0631122587 1.02234834,0.00658371261 L1.13647299,1.77635684e-14 L1.9193476,1.77635684e-14 Z M13.2808155,7.82874618 L2.58087666,7.82874618 C2.26689827,7.8104659 1.99288786,8.02539252 1.92834317,8.32396919 L1.91543323,8.41590214 L1.91543323,14.1132722 L13.9462589,14.1132722 L13.9462589,8.41590214 C13.9232067,8.07070991 13.6261917,7.80863787 13.2808155,7.82874618 Z M12.1456473,11.7333333 C12.4699246,11.7333333 12.7328033,11.996212 12.7328033,12.3204893 C12.7328033,12.6447666 12.4699246,12.9076453 12.1456473,12.9076453 L12.1456473,12.9076453 L3.71604485,12.9076453 C3.39176757,12.9076453 3.12888889,12.6447666 3.12888889,12.3204893 C3.12888889,11.996212 3.39176757,11.7333333 3.71604485,11.7333333 L3.71604485,11.7333333 Z M3.71604485,9.19877676 L12.1456473,9.19877676 C12.4699246,9.19877676 12.7328033,9.46165544 12.7328033,9.78593272 C12.7328033,10.0777823 12.5198715,10.319899 12.240887,10.3654038 L12.1456473,10.3730887 L3.71604485,10.3730887 C3.39176757,10.3730887 3.12888889,10.11021 3.12888889,9.78593272 C3.12888889,9.49408317 3.34182062,9.25196648 3.62080511,9.20646164 L3.71604485,9.19877676 L12.1456473,9.19877676 Z M5.66148828,0.00587155963 L5.66148828,4.86165138 L3.09365953,4.86165138 L3.09365953,0.00587155963 L5.66148828,0.00587155963 Z M11.398002,0.00587155963 L11.398002,4.86165138 L6.83775739,4.86165138 L6.83775739,0.00587155963 L11.398002,0.00587155963 Z" id="Combined-Shape"></path>
        </g>
    </g>
</svg>