<?xml version="1.0" encoding="UTF-8"?>
<svg width="24px" height="24px" viewBox="0 0 24 24" version="1.1" xmlns="http://www.w3.org/2000/svg" xmlns:xlink="http://www.w3.org/1999/xlink">
    <!-- Generator: Sketch 58 (84663) - https://sketch.com -->
    <title>Icon/scale/down</title>
    <desc>Created with Sketch.</desc>
    <g id="Icon/scale/down" stroke="none" stroke-width="1" fill="none" fill-rule="evenodd">
        <rect id="Rectangle" fill="#1DA3FB" x="4" y="4" width="16" height="16" rx="2"></rect>
        <g id="Group" transform="translate(7.500000, 4.250000)" fill="#EFF1F8">
            <path d="M6.43133228,3.61606018 L5.69824961,2.88877813 L5.67933398,2.86911274 L5.6614163,2.84854733 L5.64451924,2.8271494 L5.62868818,2.80496396 L5.61394578,2.782036 L5.60033741,2.75845553 L5.58788576,2.73422254 L5.57665886,2.70942705 L5.56663403,2.68413654 L5.55783395,2.65837352 L5.55032667,2.6322505 L5.5440895,2.60576747 L5.53914513,2.57903694 L5.53551623,2.5520814 L5.53320281,2.52499086 L5.53220486,2.49783281 L5.53254507,2.47065227 L5.53420076,2.44351673 L5.53717192,2.41649369 L5.54145855,2.38962815 L5.54703798,2.36303262 L5.55393289,2.33670709 L5.56207523,2.31076407 L5.57148768,2.28522606 L5.58212488,2.26018306 L5.59396416,2.23565757 L5.60700551,2.21173959 L5.62118089,2.18847413 L5.63646763,2.16592868 L5.65284303,2.14412574 L5.67026173,2.12313282 L5.68867839,2.10299492 L5.70804763,2.08377953 L5.72834678,2.06550917 L5.7494851,2.04822882 L5.77146262,2.0319835 L5.79421127,2.01681819 L5.81766302,2.00275541 L5.84177251,1.98984015 L5.86647169,1.97807242 L5.89171521,1.96751971 L5.9174577,1.95818202 L5.94363112,1.95010436 L5.97014476,1.94328672 L5.99697592,1.93772911 L6.02403389,1.93347653 L6.0512733,1.93052897 L6.07862611,1.92888643 L6.10602429,1.92857143 L6.13342247,1.92953895 L6.16072992,1.93185649 L6.18787861,1.93545657 L6.21484586,1.94033916 L6.24151825,1.94652679 L6.26787312,1.95399694 L6.29381974,1.96270461 L6.31933543,1.97264981 L6.34432946,1.98381003 L6.36873379,1.99614028 L6.39252575,2.00964055 L6.41561461,2.02426584 L6.4379777,2.03997116 L6.45954696,2.05675649 L6.48027703,2.07453185 L6.50012257,2.09327472 C6.50012257,2.09327472 7.5708288,3.15547597 8.18390836,3.76368563 C8.29481654,3.87371283 8.35714286,4.02295832 8.35714286,4.17857143 C8.35714286,4.33418454 8.29481654,4.48340753 8.18390836,4.59345723 C7.5708288,5.20164439 6.50012257,6.26384563 6.50012257,6.26384563 L6.48027703,6.28261101 L6.45954696,6.30038636 L6.4379777,6.3171492 L6.41561461,6.33287701 L6.39252575,6.34747981 L6.36873379,6.36098008 L6.34432946,6.37333282 L6.31933543,6.38449305 L6.29381974,6.39443825 L6.26787312,6.40314592 L6.24151825,6.41059357 L6.21484586,6.41678119 L6.18787861,6.42168629 L6.16072992,6.42528636 L6.13342247,6.42758141 L6.10602429,6.42857143 L6.07862611,6.42823392 L6.0512733,6.42659139 L6.02403389,6.42364383 L5.99697592,6.41939124 L5.97014476,6.41385613 L5.94363112,6.4070385 L5.9174577,6.39893834 L5.89171521,6.38960065 L5.86647169,6.37904794 L5.84177251,6.3673027 L5.81766302,6.35438744 L5.79421127,6.34032466 L5.77146262,6.32513686 L5.7494851,6.30889153 L5.72834678,6.29163369 L5.70804763,6.27334082 L5.68867839,6.25412544 L5.67026173,6.23401004 L5.65284303,6.21301712 L5.63646763,6.19121418 L5.62118089,6.16864623 L5.60700551,6.14540327 L5.59396416,6.12148529 L5.58212488,6.0969598 L5.57148768,6.0719168 L5.56207523,6.04637878 L5.55393289,6.02041327 L5.54703798,5.99411024 L5.54145855,5.96749221 L5.53717192,5.94064917 L5.53420076,5.91362613 L5.53254507,5.88649059 L5.53220486,5.85931004 L5.53320281,5.8321295 L5.53551623,5.80503896 L5.53914513,5.77810592 L5.5440895,5.75137538 L5.55032667,5.72489235 L5.55783395,5.69874683 L5.56663403,5.67300632 L5.57665886,5.64769331 L5.58788576,5.62292032 L5.60033741,5.59868733 L5.61394578,5.57508436 L5.62868818,5.5521789 L5.64451924,5.52999346 L5.6614163,5.50859553 L5.67933398,5.48803012 L5.69824961,5.46834222 L6.43133228,4.74108268 L1.85272953,4.74108268 C1.70235709,4.74108268 1.55813109,4.68181649 1.45178171,4.57631188 C1.34545501,4.47082977 1.28571429,4.32774941 1.28571429,4.17857143 C1.28571429,4.02937094 1.34545501,3.88629058 1.45178171,3.78080847 C1.55813109,3.67532636 1.70235709,3.61606018 1.85272953,3.61606018 C3.1904319,3.61606018 6.43133228,3.61606018 6.43133228,3.61606018 Z" id="Fill-1" transform="translate(4.821429, 4.178571) scale(-1, -1) rotate(-45.000000) translate(-4.821429, -4.178571) "></path>
            <path d="M5.78847513,10.6874887 L5.05539246,9.9602067 L5.03647684,9.94054131 L5.01855915,9.9199759 L5.0016621,9.89857797 L4.98583103,9.87639253 L4.97108864,9.85346457 L4.95748027,9.8298841 L4.94502862,9.80565111 L4.93380171,9.78085562 L4.92377689,9.75556511 L4.91497681,9.7298021 L4.90746953,9.70367907 L4.90123236,9.67719604 L4.89628799,9.65046551 L4.89265909,9.62350997 L4.89034567,9.59641943 L4.88934772,9.56926139 L4.88968793,9.54208084 L4.89134361,9.5149453 L4.89431477,9.48792226 L4.89860141,9.46105672 L4.90418084,9.43446119 L4.91107574,9.40813566 L4.91921808,9.38219264 L4.92863054,9.35665463 L4.93926774,9.33161163 L4.95110702,9.30708614 L4.96414837,9.28316816 L4.97832375,9.2599027 L4.99361048,9.23735725 L5.00998588,9.21555431 L5.02740459,9.19456139 L5.04582125,9.17442349 L5.06519049,9.1552081 L5.08548963,9.13693774 L5.10662796,9.11965739 L5.12860547,9.10341207 L5.15135412,9.08824676 L5.17480587,9.07418398 L5.19891536,9.06126873 L5.22361455,9.04950099 L5.24885807,9.03894828 L5.27460056,9.02961059 L5.30077398,9.02153293 L5.32728761,9.01471529 L5.35411878,9.00915768 L5.38117674,9.0049051 L5.40841616,9.00195754 L5.43576897,9.00031501 L5.46316715,9 L5.49056532,9.00096752 L5.51787278,9.00328507 L5.54502147,9.00688514 L5.57198871,9.01176774 L5.59866111,9.01795536 L5.62501598,9.02542551 L5.6509626,9.03413318 L5.67647828,9.04407838 L5.70147232,9.0552386 L5.72587665,9.06756885 L5.74966861,9.08106912 L5.77275747,9.09569441 L5.79512055,9.11139973 L5.81668981,9.12818506 L5.83741989,9.14596042 L5.85726542,9.16470329 C5.85726542,9.16470329 6.92797165,10.2269045 7.54105122,10.8351142 C7.6519594,10.9451414 7.71428571,11.0943869 7.71428571,11.25 C7.71428571,11.4056131 7.6519594,11.5548361 7.54105122,11.6648858 C6.92797165,12.273073 5.85726542,13.3352742 5.85726542,13.3352742 L5.83741989,13.3540396 L5.81668981,13.3718149 L5.79512055,13.3885778 L5.77275747,13.4043056 L5.74966861,13.4189084 L5.72587665,13.4324086 L5.70147232,13.4447614 L5.67647828,13.4559216 L5.6509626,13.4658668 L5.62501598,13.4745745 L5.59866111,13.4820221 L5.57198871,13.4882098 L5.54502147,13.4931149 L5.51787278,13.4967149 L5.49056532,13.49901 L5.46316715,13.5 L5.43576897,13.4996625 L5.40841616,13.49802 L5.38117674,13.4950724 L5.35411878,13.4908198 L5.32728761,13.4852847 L5.30077398,13.4784671 L5.27460056,13.4703669 L5.24885807,13.4610292 L5.22361455,13.4504765 L5.19891536,13.4387313 L5.17480587,13.425816 L5.15135412,13.4117532 L5.12860547,13.3965654 L5.10662796,13.3803201 L5.08548963,13.3630623 L5.06519049,13.3447694 L5.04582125,13.325554 L5.02740459,13.3054386 L5.00998588,13.2844457 L4.99361048,13.2626428 L4.97832375,13.2400748 L4.96414837,13.2168318 L4.95110702,13.1929139 L4.93926774,13.1683884 L4.92863054,13.1433454 L4.91921808,13.1178074 L4.91107574,13.0918418 L4.90418084,13.0655388 L4.89860141,13.0389208 L4.89431477,13.0120777 L4.89134361,12.9850547 L4.88968793,12.9579192 L4.88934772,12.9307386 L4.89034567,12.9035581 L4.89265909,12.8764675 L4.89628799,12.8495345 L4.90123236,12.822804 L4.90746953,12.7963209 L4.91497681,12.7701754 L4.92377689,12.7444349 L4.93380171,12.7191219 L4.94502862,12.6943489 L4.95748027,12.6701159 L4.97108864,12.6465129 L4.98583103,12.6236075 L5.0016621,12.601422 L5.01855915,12.5800241 L5.03647684,12.5594587 L5.05539246,12.5397708 L5.78847513,11.8125113 L1.20987239,11.8125113 C1.05949995,11.8125113 0.915273947,11.7532451 0.808924568,11.6477405 C0.702597869,11.5422583 0.642857143,11.399178 0.642857143,11.25 C0.642857143,11.1007995 0.702597869,10.9577192 0.808924568,10.852237 C0.915273947,10.7467549 1.05949995,10.6874887 1.20987239,10.6874887 C2.54757476,10.6874887 5.78847513,10.6874887 5.78847513,10.6874887 Z" id="Fill-1-Copy" transform="translate(4.178571, 11.250000) scale(-1, -1) rotate(-225.000000) translate(-4.178571, -11.250000) "></path>
        </g>
    </g>
</svg>