<?xml version="1.0" encoding="UTF-8"?>
<svg width="24px" height="24px" viewBox="0 0 24 24" version="1.1" xmlns="http://www.w3.org/2000/svg" xmlns:xlink="http://www.w3.org/1999/xlink">
    <!-- Generator: Sketch 58 (84663) - https://sketch.com -->
    <title>Icon/scale/up</title>
    <desc>Created with Sketch.</desc>
    <g id="Icon/scale/up" stroke="none" stroke-width="1" fill="none" fill-rule="evenodd">
        <rect id="Rectangle" fill="#1DA3FB" x="4" y="4" width="16" height="16" rx="2"></rect>
        <g id="Group" transform="translate(6.200000, 4.000000)" fill="#EFF1F8">
            <path d="M8.73039611,4.09089636 L7.90105006,3.26811263 L7.87965056,3.24586492 L7.85938005,3.222599 L7.84026419,3.19839124 L7.8223543,3.17329256 L7.80567603,3.14735386 L7.79028071,3.12067696 L7.77619399,3.09326187 L7.76349285,3.0652104 L7.75215163,3.03659891 L7.74219599,3.00745288 L7.7337029,2.97789956 L7.72664671,2.94793896 L7.72105308,2.91769835 L7.71694766,2.8872032 L7.71433045,2.85655531 L7.71320146,2.82583106 L7.71358634,2.79508136 L7.71545944,2.76438256 L7.71882075,2.73381104 L7.72367028,2.7034177 L7.72998236,2.67332983 L7.73778266,2.64354742 L7.74699419,2.61419774 L7.75764263,2.58530625 L7.76967664,2.55697478 L7.78307057,2.52922877 L7.79782442,2.50217004 L7.81386121,2.47584952 L7.83115529,2.45034355 L7.849681,2.4256776 L7.86938701,2.40192804 L7.89022202,2.37914576 L7.91213469,2.35740715 L7.93509938,2.33673764 L7.95901345,2.31718816 L7.9838769,2.29880961 L8.00961275,2.28165291 L8.03614402,2.2657435 L8.0634194,2.2511323 L8.09136191,2.2378193 L8.11992024,2.22588088 L8.14904306,2.21531703 L8.17865339,2.20617867 L8.20864861,2.19846579 L8.23900306,2.19217839 L8.26961409,2.18736738 L8.3004304,2.18403277 L8.331375,2.18217455 L8.36237091,2.18181818 L8.39336683,2.18291275 L8.42426011,2.18553462 L8.45497378,2.18960743 L8.48548218,2.19513118 L8.51565701,2.20213132 L8.54547262,2.21058239 L8.57482637,2.2204335 L8.6036926,2.23168463 L8.63196868,2.24431034 L8.65957763,2.25825971 L8.68649378,2.27353274 L8.71261451,2.29007853 L8.73791416,2.30784616 L8.76231575,2.32683563 L8.78576796,2.34694512 L8.80821947,2.36814918 C8.80821947,2.36814918 10.0195235,3.5698314 10.7131084,4.25790698 C10.8385803,4.38238219 10.9090909,4.55122557 10.9090909,4.72727273 C10.9090909,4.90331988 10.8385803,5.07213781 10.7131084,5.19663848 C10.0195235,5.8846886 8.80821947,7.08637082 8.80821947,7.08637082 L8.78576796,7.10760033 L8.76231575,7.12770983 L8.73791416,7.14667384 L8.71261451,7.16446693 L8.68649378,7.18098726 L8.65957763,7.19626029 L8.63196868,7.21023511 L8.6036926,7.22286082 L8.57482637,7.23411195 L8.54547262,7.24396306 L8.51565701,7.25238868 L8.48548218,7.25938882 L8.45497378,7.26493803 L8.42426011,7.26901083 L8.39336683,7.27160725 L8.36237091,7.27272727 L8.331375,7.27234545 L8.3004304,7.27048723 L8.26961409,7.26715262 L8.23900306,7.26234161 L8.20864861,7.25607967 L8.17865339,7.24836679 L8.14904306,7.23920297 L8.11992024,7.22863912 L8.09136191,7.2167007 L8.0634194,7.20341316 L8.03614402,7.18880196 L8.00961275,7.17289255 L7.9838769,7.15571039 L7.95901345,7.13733184 L7.93509938,7.11780781 L7.91213469,7.09711285 L7.89022202,7.07537423 L7.86938701,7.05261742 L7.849681,7.02886785 L7.83115529,7.0042019 L7.81386121,6.97867048 L7.79782442,6.95237541 L7.78307057,6.92531669 L7.76967664,6.89757068 L7.75764263,6.8692392 L7.74699419,6.84034772 L7.73778266,6.81097258 L7.72998236,6.78121562 L7.72367028,6.75110229 L7.71882075,6.72073441 L7.71545944,6.69016289 L7.71358634,6.6594641 L7.71320146,6.62871439 L7.71433045,6.59796469 L7.71694766,6.5673168 L7.72105308,6.5368471 L7.72664671,6.5066065 L7.7337029,6.4766459 L7.74219599,6.44706712 L7.75215163,6.41794654 L7.76349285,6.3893096 L7.77619399,6.36128359 L7.79028071,6.3338685 L7.80567603,6.30716614 L7.8223543,6.2812529 L7.84026419,6.25615421 L7.85938005,6.23194646 L7.87965056,6.20868054 L7.90105006,6.18640736 L8.73039611,5.36364909 L3.5505627,5.36364909 C3.38044438,5.36364909 3.21727962,5.29660048 3.09696517,5.17724173 C2.97667638,5.05790843 2.90909091,4.89603974 2.90909091,4.72727273 C2.90909091,4.55848026 2.97667638,4.39661157 3.09696517,4.27727827 C3.21727962,4.15794498 3.38044438,4.09089636 3.5505627,4.09089636 C5.06392296,4.09089636 8.73039611,4.09089636 8.73039611,4.09089636 Z" id="Fill-1" transform="translate(6.909091, 4.727273) rotate(-45.000000) translate(-6.909091, -4.727273) "></path>
            <path d="M6.54857793,10.6363509 L5.71923188,9.81356718 L5.69783238,9.79131946 L5.67756187,9.76805354 L5.65844601,9.74384579 L5.64053612,9.7187471 L5.62385785,9.6928084 L5.60846253,9.6661315 L5.59437581,9.63871641 L5.58167467,9.61066494 L5.57033345,9.58205346 L5.5603778,9.55290742 L5.55188472,9.5233541 L5.54482853,9.4933935 L5.53923489,9.4631529 L5.53512947,9.43265774 L5.53251227,9.40200986 L5.53138328,9.37128561 L5.53176816,9.3405359 L5.53364126,9.30983711 L5.53700257,9.27926559 L5.5418521,9.24887225 L5.54816418,9.21878438 L5.55596448,9.18900196 L5.56517601,9.15965228 L5.57582444,9.1307608 L5.58785846,9.10242932 L5.60125239,9.07468331 L5.61600624,9.04762459 L5.63204303,9.02130406 L5.64933711,8.9957981 L5.66786282,8.97113215 L5.68756883,8.94738258 L5.70840383,8.92460031 L5.73031651,8.90286169 L5.7532812,8.88219219 L5.77719527,8.86264271 L5.80205872,8.84426416 L5.82779456,8.82710745 L5.85432584,8.81119804 L5.88160122,8.79658684 L5.90954373,8.78327385 L5.93810205,8.77133543 L5.96722487,8.76077158 L5.99683521,8.75163321 L6.02683043,8.74392033 L6.05718488,8.73763293 L6.08779591,8.73282193 L6.11861222,8.72948732 L6.14955682,8.7276291 L6.18055273,8.72727273 L6.21154865,8.72836729 L6.24244193,8.73098917 L6.2731556,8.73506197 L6.303664,8.74058572 L6.33383883,8.74758586 L6.36365444,8.75603694 L6.39300819,8.76588805 L6.42187442,8.77713918 L6.4501505,8.78976489 L6.47775944,8.80371426 L6.5046756,8.81898729 L6.53079633,8.83553307 L6.55609598,8.8533007 L6.58049757,8.87229017 L6.60394978,8.89239967 L6.62640129,8.91360373 C6.62640129,8.91360373 7.8377053,10.1152859 8.53129027,10.8033615 C8.65676215,10.9278367 8.72727273,11.0966801 8.72727273,11.2727273 C8.72727273,11.4487744 8.65676215,11.6175924 8.53129027,11.742093 C7.8377053,12.4301431 6.62640129,13.6318254 6.62640129,13.6318254 L6.60394978,13.6530549 L6.58049757,13.6731644 L6.55609598,13.6921284 L6.53079633,13.7099215 L6.5046756,13.7264418 L6.47775944,13.7417148 L6.4501505,13.7556897 L6.42187442,13.7683154 L6.39300819,13.7795665 L6.36365444,13.7894176 L6.33383883,13.7978432 L6.303664,13.8048434 L6.2731556,13.8103926 L6.24244193,13.8144654 L6.21154865,13.8170618 L6.18055273,13.8181818 L6.14955682,13.8178 L6.11861222,13.8159418 L6.08779591,13.8126072 L6.05718488,13.8077962 L6.02683043,13.8015342 L5.99683521,13.7938213 L5.96722487,13.7846575 L5.93810205,13.7740937 L5.90954373,13.7621552 L5.88160122,13.7488677 L5.85432584,13.7342565 L5.82779456,13.7183471 L5.80205872,13.7011649 L5.77719527,13.6827864 L5.7532812,13.6632624 L5.73031651,13.6425674 L5.70840383,13.6208288 L5.68756883,13.598072 L5.66786282,13.5743224 L5.64933711,13.5496564 L5.63204303,13.524125 L5.61600624,13.49783 L5.60125239,13.4707712 L5.58785846,13.4430252 L5.57582444,13.4146937 L5.56517601,13.3858023 L5.55596448,13.3564271 L5.54816418,13.3266702 L5.5418521,13.2965568 L5.53700257,13.266189 L5.53364126,13.2356174 L5.53176816,13.2049186 L5.53138328,13.1741689 L5.53251227,13.1434192 L5.53512947,13.1127713 L5.53923489,13.0823016 L5.54482853,13.052061 L5.55188472,13.0221004 L5.5603778,12.9925217 L5.57033345,12.9634011 L5.58167467,12.9347641 L5.59437581,12.9067381 L5.60846253,12.879323 L5.62385785,12.8526207 L5.64053612,12.8267074 L5.65844601,12.8016088 L5.67756187,12.777401 L5.69783238,12.7541351 L5.71923188,12.7318619 L6.54857793,11.9091036 L1.36874452,11.9091036 C1.1986262,11.9091036 1.03546144,11.842055 0.915146986,11.7226963 C0.794858195,11.603363 0.727272727,11.4414943 0.727272727,11.2727273 C0.727272727,11.1039348 0.794858195,10.9420661 0.915146986,10.8227328 C1.03546144,10.7033995 1.1986262,10.6363509 1.36874452,10.6363509 C2.88210477,10.6363509 6.54857793,10.6363509 6.54857793,10.6363509 Z" id="Fill-1-Copy" transform="translate(4.727273, 11.272727) rotate(-225.000000) translate(-4.727273, -11.272727) "></path>
        </g>
    </g>
</svg>