<?xml version="1.0" encoding="UTF-8"?>
<svg width="24px" height="24px" viewBox="0 0 24 24" version="1.1" xmlns="http://www.w3.org/2000/svg" xmlns:xlink="http://www.w3.org/1999/xlink">
    <!-- Generator: Sketch 57.1 (83088) - https://sketch.com -->
    <title>icon/search-ondark</title>
    <desc>Created with Sketch.</desc>
    <g id="icon/search-ondark" stroke="none" stroke-width="1" fill="none" fill-rule="evenodd">
        <g id="search" transform="translate(2.000000, 2.000000)" fill="#FFFFFF" fill-rule="nonzero">
            <path d="M19.6959131,18.2168311 L14.765571,13.2661588 C16.0332486,11.8112558 16.7278166,9.98069024 16.7278166,8.0749921 C16.7278166,3.62251167 12.9756946,0 8.3639083,0 C3.75212199,0 0,3.62251167 0,8.0749921 C0,12.5274725 3.75212199,16.1499842 8.3639083,16.1499842 C10.0952373,16.1499842 11.7451091,15.6458238 13.1557005,14.6887617 L18.1234983,19.6770003 C18.3311415,19.8851947 18.6104233,20 18.9097057,20 C19.1929877,20 19.4617237,19.8957273 19.6657303,19.7061405 C20.0991989,19.3034442 20.1130176,18.6356774 19.6959131,18.2168311 Z M8.3639083,2.10651968 C11.7727464,2.10651968 14.5459275,4.78390619 14.5459275,8.0749921 C14.5459275,11.366078 11.7727464,14.0434645 8.3639083,14.0434645 C4.9550702,14.0434645 2.18188912,11.366078 2.18188912,8.0749921 C2.18188912,4.78390619 4.9550702,2.10651968 8.3639083,2.10651968 Z" id="Shape"></path>
        </g>
    </g>
</svg>