<?xml version="1.0" encoding="UTF-8"?>
<svg width="24px" height="24px" viewBox="0 0 24 24" version="1.1" xmlns="http://www.w3.org/2000/svg" xmlns:xlink="http://www.w3.org/1999/xlink">
    <!-- Generator: Sketch 57.1 (83088) - https://sketch.com -->
    <title>icon/share</title>
    <desc>Created with Sketch.</desc>
    <g id="icon/share" stroke="none" stroke-width="1" fill="none" fill-rule="evenodd">
        <path d="M16.9331002,13.8652916 C16.062964,13.8652916 15.2768631,14.2295558 14.7187734,14.8126099 L10.0927975,12.5000508 C10.1191738,12.3389195 10.1333307,12.171913 10.1333307,12.0000313 C10.1333307,11.8281495 10.1191738,11.6621431 10.0922975,11.5000117 L14.7187421,9.18751514 C15.2768319,9.7715067 16.0630265,10.1357709 16.933069,10.1357709 C18.6269017,10.1357709 20,8.76074847 20,7.06836986 C20,5.37499121 18.6269017,4 16.933069,4 C15.2396426,4 13.8671693,5.37502246 13.8671693,7.06836986 C13.8671693,7.24025157 13.8813262,7.40138287 13.9072025,7.56838939 L9.2817579,9.88088597 C8.72313687,9.29689441 7.93750476,8.93266143 7.06689975,8.93266143 C5.37303579,8.93266143 4,10.3076526 4,12.0000313 C4,13.6933786 5.37306704,15.0684324 7.06689975,15.0684324 C7.93750476,15.0684324 8.72313687,14.7031681 9.2817579,14.1201453 L13.9072338,16.4326732 C13.8813575,16.5996172 13.8672005,16.7656237 13.8672005,16.9326302 C13.8672005,18.6250088 15.2397676,20 16.9331002,20 C18.626933,20 20,18.6250088 20,16.9326302 C20,15.2403453 18.626933,13.8652916 16.9331002,13.8652916 Z" id="Path" fill="#374754" fill-rule="nonzero"></path>
    </g>
</svg>