<?xml version="1.0" encoding="UTF-8"?>
<svg width="24px" height="24px" viewBox="0 0 24 24" version="1.1" xmlns="http://www.w3.org/2000/svg" xmlns:xlink="http://www.w3.org/1999/xlink">
    <!-- Generator: Sketch 57.1 (83088) - https://sketch.com -->
    <title>icon/star</title>
    <desc>Created with Sketch.</desc>
    <g id="icon/star" stroke="none" stroke-width="1" fill="none" fill-rule="evenodd">
        <path d="M11.8434891,16.5393868 L7.91117863,18.2113077 C7.70787756,18.2977463 7.47299718,18.2030105 7.3865586,17.9997094 C7.36087294,17.9392975 7.35045043,17.8734923 7.35621063,17.8080998 L7.73115112,13.5515984 C7.7406868,13.4433449 7.70576641,13.335871 7.63442208,13.253897 L4.82918005,10.0306994 C4.68414859,9.86405961 4.70166563,9.61140013 4.86830545,9.46636867 C4.91782333,9.42327183 4.977187,9.39302453 5.04115896,9.37829541 L9.20519542,8.41955372 C9.3110973,8.39517051 9.40252006,8.32874799 9.45843534,8.23556414 L11.6570109,4.57159761 C11.7706776,4.38216997 12.0163841,4.32075359 12.2058118,4.43442029 C12.2621012,4.46819694 12.3092124,4.51530821 12.3429891,4.57159761 L14.5415647,8.23556414 C14.5974799,8.32874799 14.6889027,8.39517051 14.7948046,8.41955372 L18.958841,9.37829541 C19.1741224,9.42786251 19.3084603,9.64256458 19.2588932,9.85784592 C19.2441641,9.92181788 19.2139168,9.98118155 19.17082,10.0306994 L16.3655779,13.253897 C16.2942336,13.335871 16.2593132,13.4433449 16.2688489,13.5515984 L16.6437894,17.8080998 C16.6631739,18.0281616 16.5004928,18.2222712 16.280431,18.2416557 C16.2150385,18.2474159 16.1492333,18.2369934 16.0888214,18.2113077 L12.1565109,16.5393868 C12.0565024,16.4968657 11.9434976,16.4968657 11.8434891,16.5393868 Z" id="Star" fill="#374754" fill-rule="nonzero"></path>
    </g>
</svg>