<?xml version="1.0" encoding="UTF-8"?>
<svg width="24px" height="24px" viewBox="0 0 24 24" version="1.1" xmlns="http://www.w3.org/2000/svg" xmlns:xlink="http://www.w3.org/1999/xlink">
    <!-- Generator: Sketch 57.1 (83088) - https://sketch.com -->
    <title>icon/trash_black</title>
    <desc>Created with Sketch.</desc>
    <g id="icon/trash_black" stroke="none" stroke-width="1" fill="none" fill-rule="evenodd">
        <g id="noun_Trash_368374" transform="translate(4.000000, 3.000000)" fill="#374754" fill-rule="nonzero">
            <path d="M10.3641322,0.124958678 L5.72280992,0.124958678 C4.91950413,0.124958678 4.25900826,0.767603306 4.25900826,1.58876033 L4.25900826,2.58842975 L0.367438017,2.58842975 L0.367438017,3.90942149 L1.5277686,3.90942149 L1.5277686,14.9593388 C1.5277686,16.4766942 2.75950413,17.7084298 4.2768595,17.7084298 L11.8100826,17.7084298 C13.3095868,17.7084298 14.5234711,16.4766942 14.5234711,14.9593388 L14.5234711,3.90942149 L15.6659504,3.90942149 L15.6659504,2.58842975 L11.8279339,2.58842975 L11.8279339,1.58876033 C11.8279339,0.785454545 11.167438,0.124958678 10.3641322,0.124958678 Z M5.58,14.3880992 L4.25900826,14.3880992 L4.25900826,5.92661157 L5.58,5.92661157 L5.58,14.3880992 Z M8.70396694,14.3880992 L7.36512397,14.3880992 L7.36512397,5.92661157 L8.70396694,5.92661157 L8.70396694,14.3880992 Z M10.4712397,2.58842975 L5.58,2.58842975 L5.58,1.58876033 C5.58,1.51735537 5.65140496,1.44595041 5.72280992,1.44595041 L10.3641322,1.44595041 C10.4355372,1.44595041 10.5069421,1.51735537 10.5069421,1.58876033 L10.5069421,2.58842975 L10.4712397,2.58842975 Z M11.8279339,14.3880992 L10.5069421,14.3880992 L10.5069421,5.92661157 L11.8279339,5.92661157 L11.8279339,14.3880992 Z" id="Shape"></path>
        </g>
    </g>
</svg>