<?xml version="1.0" encoding="UTF-8"?>
<svg width="50px" height="50px" viewBox="0 0 50 50" version="1.1" xmlns="http://www.w3.org/2000/svg" xmlns:xlink="http://www.w3.org/1999/xlink">
    <!-- Generator: Sketch 57.1 (83088) - https://sketch.com -->
    <title>icon/crypto/USDT</title>
    <desc>Created with Sketch.</desc>
    <g id="icon/crypto/USDT" stroke="none" stroke-width="1" fill="none" fill-rule="evenodd">
        <g id="tether-usdt-logo" transform="translate(12.000000, 12.000000)" fill-rule="nonzero">
            <circle id="Oval" fill="#26A17B" cx="13" cy="13" r="13"></circle>
            <path d="M14.561625,14.1236875 L14.561625,14.1220625 C14.47225,14.1285625 14.0115625,14.1561875 12.98375,14.1561875 C12.163125,14.1561875 11.5854375,14.1318125 11.3823125,14.1220625 L11.3823125,14.1245 C8.2233125,13.9855625 5.8654375,13.4355 5.8654375,12.777375 C5.8654375,12.1200625 8.2233125,11.57 11.3823125,11.428625 L11.3823125,13.576875 C11.5886875,13.5915 12.1801875,13.6264375 12.9975625,13.6264375 C13.97825,13.6264375 14.4698125,13.5858125 14.561625,13.5776875 L14.561625,11.43025 C17.714125,11.5708125 20.0663125,12.120875 20.0663125,12.777375 C20.0663125,13.4355 17.714125,13.9839375 14.561625,14.1236875 M14.561625,11.2068125 L14.561625,9.2844375 L18.9605,9.2844375 L18.9605,6.3529375 L6.9834375,6.3529375 L6.9834375,9.2844375 L11.3823125,9.2844375 L11.3823125,11.206 C7.8073125,11.370125 5.11875,12.078625 5.11875,12.926875 C5.11875,13.775125 7.8073125,14.4828125 11.3823125,14.64775 L11.3823125,20.808125 L14.561625,20.808125 L14.561625,14.646125 C18.1309375,14.482 20.813,13.7743125 20.813,12.926875 C20.813,12.0794375 18.1309375,11.37175 14.561625,11.2068125" id="Shape" fill="#FFFFFF"></path>
        </g>
    </g>
</svg>