<?xml version="1.0" encoding="UTF-8"?>
<svg width="24px" height="24px" viewBox="0 0 24 24" version="1.1" xmlns="http://www.w3.org/2000/svg" xmlns:xlink="http://www.w3.org/1999/xlink">
    <!-- Generator: Sketch 57.1 (83088) - https://sketch.com -->
    <title>icon/user</title>
    <desc>Created with Sketch.</desc>
    <g id="icon/user" stroke="none" stroke-width="1" fill="none" fill-rule="evenodd">
        <g id="user" transform="translate(2.000000, 2.000000)" fill="#FFFFFF" fill-rule="nonzero">
            <path d="M20,10 C20,4.48618182 15.5138182,0 10,0 C4.48618182,0 0,4.48618182 0,10 C0,12.9123636 1.25236364,15.5374545 3.24581818,17.3665455 L3.23636364,17.3749091 L3.56072727,17.6483636 C3.58181818,17.6661818 3.60472727,17.6807273 3.62581818,17.6981818 C3.79818182,17.8410909 3.97672727,17.9767273 4.15854545,18.108 C4.21745455,18.1505455 4.27636364,18.1930909 4.33636364,18.2345455 C4.53054545,18.3683636 4.72981818,18.4952727 4.93345455,18.6156364 C4.97781818,18.6418182 5.02254545,18.6672727 5.06727273,18.6927273 C5.29018182,18.8196364 5.51781818,18.9392727 5.75090909,19.0490909 C5.768,19.0570909 5.78545455,19.0643636 5.80254545,19.0723636 C6.56218182,19.4254545 7.37309091,19.6847273 8.22109091,19.8378182 C8.24327273,19.8418182 8.26545455,19.8458182 8.288,19.8498182 C8.55127273,19.8952727 8.81745455,19.9316364 9.08690909,19.956 C9.11963636,19.9589091 9.15236364,19.9607273 9.18545455,19.9636364 C9.45381818,19.9858182 9.72509091,20 10,20 C10.2723636,20 10.5410909,19.9858182 10.808,19.9643636 C10.8418182,19.9614545 10.8756364,19.9596364 10.9094545,19.9567273 C11.1767273,19.9323636 11.4407273,19.8970909 11.7014545,19.8523636 C11.724,19.8483636 11.7469091,19.8443636 11.7694545,19.84 C12.6047273,19.6901818 13.404,19.4367273 14.1538182,19.0927273 C14.1814545,19.08 14.2094545,19.068 14.2370909,19.0549091 C14.4614545,18.9494545 14.6807273,18.8356364 14.8956364,18.7145455 C14.9490909,18.6843636 15.0021818,18.6538182 15.0552727,18.6225455 C15.2509091,18.5072727 15.4432727,18.3869091 15.6301818,18.2589091 C15.6974545,18.2130909 15.7632727,18.1647273 15.8298182,18.1167273 C15.9894545,18.0018182 16.1461818,17.8832727 16.2985455,17.7592727 C16.3323636,17.732 16.3687273,17.7083636 16.4018182,17.6803636 L16.7345455,17.4025455 L16.7247273,17.3941818 C18.7356364,15.5643636 20,12.9272727 20,10 Z M0.727272727,10 C0.727272727,4.88690909 4.88690909,0.727272727 10,0.727272727 C15.1130909,0.727272727 19.2727273,4.88690909 19.2727273,10 C19.2727273,12.7552727 18.0636364,15.2323636 16.1494545,16.932 C16.0425455,16.8581818 15.9349091,16.792 15.8247273,16.7367273 L12.7458182,15.1974545 C12.4694545,15.0592727 12.2978182,14.7814545 12.2978182,14.4727273 L12.2978182,13.3974545 C12.3690909,13.3094545 12.4443636,13.2098182 12.5221818,13.1003636 C12.9207273,12.5374545 13.2403636,11.9112727 13.4734545,11.2374545 C13.9341818,11.0185455 14.2316364,10.5596364 14.2316364,10.0414545 L14.2316364,8.75236364 C14.2316364,8.43709091 14.116,8.13127273 13.9090909,7.89090909 L13.9090909,6.19381818 C13.928,6.00472727 13.9949091,4.94 13.2243636,4.06145455 C12.5541818,3.29636364 11.4694545,2.90909091 10,2.90909091 C8.53054545,2.90909091 7.44581818,3.29636364 6.77563636,4.06109091 C6.00509091,4.93963636 6.072,6.00509091 6.09090909,6.19345455 L6.09090909,7.89054545 C5.88436364,8.13090909 5.76836364,8.43672727 5.76836364,8.752 L5.76836364,10.0410909 C5.76836364,10.4414545 5.948,10.8149091 6.25563636,11.0669091 C6.55018182,12.2207273 7.15636364,13.0941818 7.38036364,13.3901818 L7.38036364,14.4425455 C7.38036364,14.7392727 7.21854545,15.012 6.95781818,15.1545455 L4.08254545,16.7229091 C3.99090909,16.7727273 3.9,16.8309091 3.80909091,16.896 C1.91854545,15.1970909 0.727272727,12.7352727 0.727272727,10 Z" id="Shape"></path>
        </g>
    </g>
</svg>