<?xml version="1.0" encoding="UTF-8"?>
<svg width="24px" height="24px" viewBox="0 0 24 24" version="1.1" xmlns="http://www.w3.org/2000/svg" xmlns:xlink="http://www.w3.org/1999/xlink">
    <!-- Generator: Sketch 57.1 (83088) - https://sketch.com -->
    <title>icon/view</title>
    <desc>Created with Sketch.</desc>
    <g id="icon/view" stroke="none" stroke-width="1" fill="none" fill-rule="evenodd">
        <g id="visibility-button" transform="translate(2.000000, 5.000000)" fill="#9AABB8" fill-rule="nonzero">
            <path d="M10,0.0091383812 C5.45454545,0.0091383812 1.54545455,2.89869452 0,7 C1.54545455,11.1013055 5.45454545,13.9908616 10,13.9908616 C14.5454545,13.9908616 18.4545455,11.1013055 20,7 C18.4545455,2.89869452 14.5454545,0.0091383812 10,0.0091383812 Z M10,11.6605744 C7.45454545,11.6605744 5.45454545,9.60992167 5.45454545,7 C5.45454545,4.39007833 7.45454545,2.33942559 10,2.33942559 C12.5454545,2.33942559 14.5454545,4.39007833 14.5454545,7 C14.5454545,9.60992167 12.5454545,11.6605744 10,11.6605744 Z M10,4.20365535 C8.45454545,4.20365535 7.27272727,5.4154047 7.27272727,7 C7.27272727,8.5845953 8.45454545,9.79634465 10,9.79634465 C11.5454545,9.79634465 12.7272727,8.5845953 12.7272727,7 C12.7272727,5.4154047 11.5454545,4.20365535 10,4.20365535 Z" id="Shape"></path>
        </g>
    </g>
</svg>