<?xml version="1.0" encoding="UTF-8"?>
<svg width="24px" height="24px" viewBox="0 0 24 24" version="1.1" xmlns="http://www.w3.org/2000/svg" xmlns:xlink="http://www.w3.org/1999/xlink">
    <!-- Generator: Sketch 57.1 (83088) - https://sketch.com -->
    <title>icon/warning</title>
    <desc>Created with Sketch.</desc>
    <g id="icon/warning" stroke="none" stroke-width="1" fill="none" fill-rule="evenodd">
        <g id="danger" transform="translate(3.000000, 4.000000)" fill="#9AABB8" fill-rule="nonzero">
            <path d="M17.5610435,13.5186087 L10.0584348,1.38017391 C9.4546087,0.403478261 8.47234783,0.400695652 7.86713043,1.38017391 L0.363130435,13.5186087 C-0.447304348,14.829913 0.144,15.8852174 1.67721739,15.8852174 L16.2469565,15.8852174 C17.7801739,15.8852174 18.3686957,14.8257391 17.5610435,13.5186087 Z M8.96278261,13.7982609 C8.57808696,13.7982609 8.26713043,13.4873043 8.26713043,13.1026087 C8.26713043,12.717913 8.57808696,12.4069565 8.96278261,12.4069565 C9.34817391,12.4069565 9.65843478,12.717913 9.65843478,13.1026087 C9.65843478,13.4873043 9.34747826,13.7982609 8.96278261,13.7982609 Z M9.65843478,10.322087 C9.65843478,10.7005217 9.34817391,11.0156522 8.96278261,11.0156522 C8.576,11.0156522 8.26713043,10.7053913 8.26713043,10.322087 L8.26713043,6.144 C8.26713043,5.76556522 8.57808696,5.45043478 8.96278261,5.45043478 C9.35026087,5.45043478 9.65843478,5.76069565 9.65843478,6.144 L9.65843478,10.322087 Z" id="Shape"></path>
        </g>
    </g>
</svg>