<?xml version="1.0" encoding="UTF-8"?>
<svg width="50px" height="50px" viewBox="0 0 50 50" version="1.1" xmlns="http://www.w3.org/2000/svg" xmlns:xlink="http://www.w3.org/1999/xlink">
    <!-- Generator: Sketch 57.1 (83088) - https://sketch.com -->
    <title>icon/crypto/ZEC</title>
    <desc>Created with Sketch.</desc>
    <defs>
        <linearGradient x1="15.7811956%" y1="84.2182661%" x2="84.8062655%" y2="15.1931962%" id="linearGradient-1">
            <stop stop-color="#CF8724" offset="0%"></stop>
            <stop stop-color="#FDCE58" offset="100%"></stop>
        </linearGradient>
    </defs>
    <g id="icon/crypto/ZEC" stroke="none" stroke-width="1" fill="none" fill-rule="evenodd">
        <g id="zcash-zec-logo" transform="translate(12.000000, 12.000000)" fill-rule="nonzero">
            <g id="Vector" transform="translate(2.372421, 2.372421)" fill="url(#linearGradient-1)">
                <path d="M10.7632909,21.5227606 C4.83942727,21.5227606 0.00382121212,16.6822303 0.00382121212,10.7632909 C0.00382121212,4.83942727 4.84435152,0.00382121212 10.7632909,0.00382121212 C16.6871545,0.00382121212 21.5227606,4.84435152 21.5227606,10.7632909 C21.5227606,16.6871545 16.6871545,21.5227606 10.7632909,21.5227606 Z" id="path0_fill"></path>
            </g>
            <g id="Vector_2_" fill="#000000">
                <path d="M13,26 C5.85,26 0,20.15 0,13 C0,5.85 5.85,0 13,0 C20.15,0 26,5.85 26,13 C26,20.15 20.15,26 13,26 Z M13,2.8905303 C7.4405303,2.8905303 2.8905303,7.4405303 2.8905303,13 C2.8905303,18.5594697 7.4405303,23.1094697 13,23.1094697 C18.5594697,23.1094697 23.1094697,18.5594697 23.1094697,13 C23.1094697,7.4405303 18.5594697,2.8905303 13,2.8905303 Z" id="path1_fill"></path>
            </g>
            <g id="Vector_4_" transform="translate(8.598692, 4.752436)" fill="#000000">
                <path d="M4.10023939,11.7689394 L9.73357273,11.7689394 L9.73357273,14.5856061 L6.40970909,14.5856061 L6.40970909,16.9689394 L3.51917879,16.9689394 L3.51917879,14.6594697 L0.0525121212,14.6594697 C0.0525121212,13.7189394 -0.0902909091,12.7833333 0.126375758,11.9166667 C0.200239394,11.4833333 0.702512121,11.05 1.06690606,10.6166667 C2.15023939,9.31666667 3.23357273,8.01666667 4.3907697,6.71666667 C4.82410303,6.2094697 5.25743636,5.77613636 5.76463333,5.2 L0.347966667,5.2 L0.347966667,2.38333333 L3.52410303,2.38333333 L3.52410303,0 L6.3407697,0 L6.3407697,2.3094697 L9.80743636,2.3094697 C9.80743636,3.25 9.95023939,4.18560606 9.73357273,5.05227273 C9.65970909,5.48560606 9.15743636,5.91893939 8.79304242,6.35227273 C7.70970909,7.65227273 6.62637576,8.95227273 5.46917879,10.2522727 C5.03584545,10.7594697 4.60251212,11.2617424 4.10023939,11.7689394 L4.10023939,11.7689394 Z" id="path2_fill"></path>
            </g>
        </g>
    </g>
</svg>