<?xml version="1.0" encoding="UTF-8"?>
<svg width="50px" height="50px" viewBox="0 0 50 50" version="1.1" xmlns="http://www.w3.org/2000/svg" xmlns:xlink="http://www.w3.org/1999/xlink">
    <!-- Generator: Sketch 57.1 (83088) - https://sketch.com -->
    <title>icon/crypto/ZEN</title>
    <desc>Created with Sketch.</desc>
    <defs>
        <radialGradient cx="88.1739891%" cy="-0.0711301137%" fx="88.1739891%" fy="-0.0711301137%" r="106.384234%" gradientTransform="translate(0.881740,-0.000711),scale(1.000000,0.999708),translate(-0.881740,0.000711)" id="radialGradient-1">
            <stop stop-color="#26DB8D" offset="9.86%"></stop>
            <stop stop-color="#23D29A" offset="26.28%"></stop>
            <stop stop-color="#1ABBBB" offset="56.37%"></stop>
            <stop stop-color="#0E9DE5" offset="88.6%"></stop>
        </radialGradient>
        <radialGradient cx="135.049629%" cy="-148.285915%" fx="135.049629%" fy="-148.285915%" r="385.380634%" gradientTransform="translate(1.350496,-1.482859),scale(0.479406,1.000000),translate(-1.350496,1.482859)" id="radialGradient-2">
            <stop stop-color="#26DB8D" offset="9.86%"></stop>
            <stop stop-color="#23D29A" offset="26.28%"></stop>
            <stop stop-color="#1ABBBB" offset="56.37%"></stop>
            <stop stop-color="#0E9DE5" offset="88.6%"></stop>
        </radialGradient>
    </defs>
    <g id="icon/crypto/ZEN" stroke="none" stroke-width="1" fill="none" fill-rule="evenodd">
        <g id="Group" transform="translate(12.000000, 12.000000)" fill-rule="nonzero">
            <path d="M23.4277863,5.39648855 L23.4277863,5.39847328 L21.3160305,8.66931298 C21.9630534,9.94351145 22.3282443,11.3844275 22.3282443,12.910687 C22.3282443,18.1007634 18.1206107,22.3064122 12.9325191,22.3064122 C11.4082443,22.3064122 9.96931298,21.9412214 8.69709924,21.2961832 L5.42625954,23.4099237 C7.54198473,24.9262595 10.1320611,25.821374 12.9345038,25.821374 C20.0656489,25.821374 25.8451908,20.0398473 25.8451908,12.910687 C25.8432061,10.1082443 24.9461069,7.51419847 23.4277863,5.39648855 Z" id="Path" fill="url(#radialGradient-1)"></path>
            <path d="M12.9325191,19.3769466 C16.1120611,19.3769466 18.7537405,17.0885496 19.3094656,14.0717557 C18.3032061,13.8574046 17.2612214,13.7403053 16.1894656,13.7403053 C12.9662595,13.7403053 9.98717557,14.7703817 7.5519084,16.5149618 C8.71694656,18.2416794 10.6917557,19.3769466 12.9325191,19.3769466 Z" id="Path" fill="url(#radialGradient-2)"></path>
            <path d="M16.1279389,12.561374 C17.2572519,12.561374 18.3567939,12.6844275 19.4166412,12.9146565 C19.4166412,12.9146565 19.4166412,12.9126718 19.4166412,12.9126718 C19.4166412,9.33022901 16.5129771,6.42854962 12.9325191,6.42854962 C9.35007634,6.42854962 6.44839695,9.33221374 6.44839695,12.9126718 C6.44839695,13.2064122 6.47022901,13.4961832 6.50793893,13.78 C6.50793893,13.78 6.5059542,13.78 6.5059542,13.7819847 C4.87251908,15.0224427 4.09847328,16.0048855 4.07465649,16.0366412 C3.72931298,15.0601527 3.53679389,14.010229 3.53679389,12.9146565 C3.53679389,7.72458015 7.74442748,3.5189313 12.9325191,3.5189313 C14.4528244,3.5189313 15.8858015,3.8821374 17.1560305,4.52320611 L20.428855,2.40748092 C18.3151145,0.891145038 15.7290076,0 12.9325191,0 C5.80137405,0 0.0218320611,5.78152672 0.0218320611,12.910687 C0.0218320611,15.7806107 0.960610687,18.430229 2.54442748,20.5737405 C3.15572519,19.4682443 3.9,18.4461069 4.75145038,17.5271756 C4.75145038,17.5271756 6.02564885,16.1974046 7.00015267,15.5305344 C9.56244275,13.6648855 12.7161832,12.561374 16.1279389,12.561374 Z" id="Path" fill="#041742"></path>
        </g>
    </g>
</svg>